<?xml version="1.0" encoding="utf-8"?>
<!-- Generator: Adobe Illustrator 24.1.2, SVG Export Plug-In . SVG Version: 6.00 Build 0)  -->
<svg version="1.1" id="Ebene_1" xmlns="http://www.w3.org/2000/svg" xmlns:xlink="http://www.w3.org/1999/xlink" x="0px" y="0px"
	 width="35" height="35" viewBox="0 0 35 35" style="enable-background:new 0 0 35 35;" xml:space="preserve">
<style type="text/css">
	.st0{fill:#1877F2;}
	.st1{fill:#FFFFFF;}
</style>
<g id="g10" transform="matrix(1.3333333,0,0,-1.3333333,0,1365.3333)">
	<g id="g12" transform="scale(0.1)">
		<path id="path14" class="st0" d="M262.5,10108.75c0,72.49-58.76,131.25-131.25,131.25S0,10181.24,0,10108.75
			c0-65.51,48-119.81,110.74-129.66v91.72H77.42v37.94h33.33v28.92c0,32.89,19.59,51.06,49.58,51.06c14.36,0,29.38-2.56,29.38-2.56
			v-32.3h-16.55c-16.3,0-21.39-10.12-21.39-20.5v-24.62h36.4l-5.82-37.94h-30.58v-91.72
			C214.5,9988.94,262.5,10043.24,262.5,10108.75"/>
		<path id="path16" class="st1" d="M182.34,10070.81l5.82,37.94h-36.4v24.62c0,10.38,5.08,20.5,21.39,20.5h16.55v32.3
			c0,0-15.02,2.56-29.38,2.56c-29.98,0-49.58-18.17-49.58-51.06v-28.92H77.42v-37.94h33.33v-91.72c6.68-1.05,13.53-1.59,20.51-1.59
			s13.83,0.55,20.51,1.59v91.72H182.34"/>
	</g>
</g>
</svg>
