<svg xmlns="http://www.w3.org/2000/svg" width="35" height="35" viewBox="0 0 35 35">
    <defs>
        <linearGradient id="a" x1="21.319%" x2="78.682%" y1="90.961%" y2="9.039%">
            <stop offset="0%" stop-color="#FFB900"/>
            <stop offset="100%" stop-color="#9100EB"/>
        </linearGradient>
    </defs>
    <g fill="none" fill-rule="evenodd">
        <circle cx="17.5" cy="17.5" r="17.5" fill="url(#a)"/>
        <g fill="#FFF" transform="translate(6.563 6.563)">
            <path d="M15.95 21.875H5.925A5.931 5.931 0 0 1 0 15.95V5.925A5.931 5.931 0 0 1 5.925 0H15.95a5.931 5.931 0 0 1 5.925 5.925V15.95a5.93 5.93 0 0 1-5.925 5.924zM5.925 1.823a4.106 4.106 0 0 0-4.102 4.102V15.95a4.106 4.106 0 0 0 4.102 4.101H15.95a4.106 4.106 0 0 0 4.102-4.101V5.925a4.106 4.106 0 0 0-4.102-4.102H5.925z"/>
            <path d="M10.938 16.406a5.475 5.475 0 0 1-5.47-5.468 5.475 5.475 0 0 1 5.47-5.47 5.475 5.475 0 0 1 5.468 5.47 5.475 5.475 0 0 1-5.468 5.468zm0-9.114a3.65 3.65 0 0 0-3.646 3.646 3.65 3.65 0 0 0 3.646 3.645 3.65 3.65 0 0 0 3.645-3.646 3.65 3.65 0 0 0-3.646-3.645z"/>
            <circle cx="16.748" cy="5.127" r="1.253"/>
        </g>
    </g>
</svg>
