<svg xmlns="http://www.w3.org/2000/svg" width="35" height="35" viewBox="0 0 35 35">
    <path fill="#1DA1F2" fill-rule="evenodd" d="M17.5 35C7.835 35 0 27.165 0 17.5S7.835 0 17.5 0 35 7.835 35 17.5 27.165 35 17.5 35zM28 
        11.846c-.75.37-1.5.492-2.375.616.875-.493 1.5-1.231 1.75-2.216-.75.492-1.625.739-2.625.985a4.4 4.4 0 0 0-3-1.231c-2.125 0-4 1.846-4 4.062 
        0 .369 0 .615.125.861-3.375-.123-6.5-1.723-8.5-4.185-.375.616-.5 1.231-.5 2.093 0 1.354.75 2.584 1.875 3.323-.625 0-1.25-.246-1.875-.492 
        0 1.969 1.375 3.569 3.25 3.938-.375.123-.75.123-1.125.123-.25 0-.5 0-.75-.123.5 1.6 2 2.83 3.875 2.83C12.75 23.539 11 24.155 9 24.155H8C9.875 
        25.262 12 26 14.25 26c7.5 0 11.625-6.154 11.625-11.446v-.492c.875-.616 1.625-1.354 2.125-2.216z"/>
</svg>
