<svg id="Layer_1" data-name="Layer 1" xmlns="http://www.w3.org/2000/svg" viewBox="0 0 120 120"
    width="35" height="35" style="enable-background:new 0 0 120 120;" xml:space="preserve">
    <defs>
        <style>
            .cls-1{fill:#1ab7ea;}
            .cls-2{fill:#fff;}
        </style>
    </defs>
    <rect class="cls-1" width="120" height="120" rx="60"/>
    <path class="cls-2" d="M101,39.85q-.57,12.66-17.68,34.67-17.69,23-29.93,23-7.57,0-12.82-14-3.51-12.82-7-25.66-3.9-14-8.36-14c-.65,
        0-2.92,1.37-6.81,4.09L14.3,42.67Q20.72,37,27,31.39,35.51,24,39.8,23.6q10.13-1,12.46,13.84,2.54,16,3.51,19.87,2.92,13.26,6.42,13.25,2.73,0,
        8.18-8.6t5.84-13.09q.78-7.42-5.84-7.43A16.3,16.3,0,0,0,64,42.86q6.39-20.92,24.42-20.34Q101.75,22.91,101,39.85Z" 
        transform="translate(0)"/>
</svg>