<svg xmlns="http://www.w3.org/2000/svg" width="35" height="35" viewBox="0 0 35 35">
    <g fill="none" fill-rule="evenodd">
        <circle cx="17.5" cy="17.5" r="17.5" fill="#FF0201"/>
        <path fill="#FFF" d="M27.813 14.035S28 15.646 28 17.257v1.486c0 1.611-.188 3.222-.188 3.222s-.187 1.362-.812 1.982c-.75.805-1.625.805-2 .867C22.187 25 18 25 18 25s-5.188-.062-6.813-.186c-.437-.124-1.437-.062-2.187-.867-.625-.62-.813-1.982-.813-1.982S8 20.354 8 18.743v-1.486c0-1.611.188-3.222.188-3.222s.187-1.362.812-1.982c.75-.805 1.625-.805 2-.867C13.813 11 18 11 18 11s4.188 0 7 .186c.375.062 1.25.062 2 .867.625.62.813 1.982.813 1.982zm-11.875 6.567l5.374-2.788-5.375-2.787v5.575z"/>
    </g>
</svg>
