<svg id="Ebene_1" xmlns="http://www.w3.org/2000/svg" viewBox="0 0 500 500">
    <defs>
        <style>.cls-1{fill:#fff;}.cls-2{fill:#bb1545;}.cls-3{fill:#243f6e;}.cls-4{fill:#a5b1b5;}</style>
    </defs>
    <title>Bildmarke_Digital</title>
    <path class="cls-1"
          d="M136.63,471.65h108.6A226.43,226.43,0,0,1,471.65,245.23V136.63C286.62,136.63,136.63,286.62,136.63,471.65Z"/>
    <path class="cls-2"
          d="M244.68,471.65H347.85a123.8,123.8,0,0,1,123.8-123.8V244.68C346.3,244.68,244.68,346.3,244.68,471.65Z"/>
    <path class="cls-3"
          d="M163.2,341.4A334.35,334.35,0,0,1,471.65,136.94V28.35h0c-244.82,0-443.28,198.49-443.29,443.3H136.94A332.61,332.61,0,0,1,163.2,341.4Z"/>
    <circle class="cls-4" cx="436.74" cy="436.74" r="34.91"/>
</svg>
