<?xml version="1.0" encoding="utf-8"?>
<!-- Generator: Adobe Illustrator 23.0.2, SVG Export Plug-In . SVG Version: 6.00 Build 0)  -->
<svg version="1.1" id="Ebene_1" xmlns="http://www.w3.org/2000/svg" xmlns:xlink="http://www.w3.org/1999/xlink" x="0px" y="0px"
	 viewBox="0 0 24 24" style="enable-background:new 0 0 24 24;" xml:space="preserve">
<style type="text/css">
	.st0{fill:#003064;}
</style>
<g>
	<g>
		<path class="st0" d="M22.7,10.9L15.9,4c-0.4-0.4-1.1-0.4-1.5,0l-2.1,2L9.7,3.4c-0.5-0.5-1.1-0.5-1.6,0l-6.8,6.9
			c-0.4,0.4-0.4,1.1,0,1.5l6.8,6.9c0.6,0.5,1,0.5,1.5,0l2.6-2.6l2.6,2.6c0.4,0.4,1.1,0.4,1.5,0l6.3-6.3
			C23.1,11.7,23.2,11.3,22.7,10.9z M14.2,5.9c0.3-0.3,0.8-0.3,1.2,0l0.4,0.4c0.3,0.4,0.3,0.8,0,1.1c-0.3,0.3-0.9,0.3-1.2,0L14.2,7
			C13.9,6.8,13.9,6.3,14.2,5.9z M11.5,15.4L9,18l-6.9-6.9l6.8-6.9l0,0l0,0l2.7,2.6l1.1,1.1L14,9.2l1.9,1.9L11.5,15.4z M16.9,17.2
			c-0.3,0.3-0.9,0.4-1.2,0l-0.4-0.5c-0.3-0.3-0.3-0.9,0-1.2s0.9-0.3,1.2,0l0.4,0.4C17.2,16.4,17.2,16.9,16.9,17.2z M19,15
			c-0.3,0.3-0.8,0.4-1.1,0.1l-0.5-0.5c-0.3-0.3-0.3-0.9,0-1.2s0.7-0.3,1.1,0l0.5,0.4C19.3,14.2,19.3,14.6,19,15z M21.2,12.8
			c-0.3,0.3-0.8,0.3-1.1,0.1l-0.5-0.4c-0.3-0.3-0.3-0.9,0-1.2s0.8-0.2,1.1,0l0.5,0.4C21.5,12.1,21.5,12.5,21.2,12.8z"/>
	</g>
	<g>
		<path class="st0" d="M11,11c-1,0-1,1-1,1S9,9,8,9s-3,4-3,4h8C13,13,12,11,11,11z"/>
	</g>
</g>
<circle class="st0" cx="11" cy="9" r="1"/>
</svg>
