<?xml version="1.0" standalone="no"?>
<!DOCTYPE svg PUBLIC "-//W3C//DTD SVG 20010904//EN">
<svg version="1.0" xmlns="http://www.w3.org/2000/svg"
     width="500.000000pt" height="500.000000pt" viewBox="0 0 500.000000 500.000000"
     preserveAspectRatio="xMidYMid meet">
    <defs>
        <style>.cls-1{fill:#fff;}.cls-2{fill:#bb1545;}.cls-3{fill:#243f6e;}.cls-4{fill:#a5b1b5;}</style>
    </defs>
    <metadata>
        Created by potrace 1.14, written by Peter Selinger 2001-2017
    </metadata>
    <g transform="translate(0.000000,500.000000) scale(0.100000,-0.100000)" stroke="none">
        <path class="cls-3" d="M4449 4709 c-1557 -89 -2965 -1012 -3684 -2414 -291 -569 -450 -1185
                     -480 -1867 l-7 -148 546 0 546 0 0 69 c0 276 64 659 161 958 279 861 882 1566
                     1681 1965 441 220 869 331 1370 354 l138 7 0 544 0 543 -67 -1 c-38 -1 -129
                     -5 -204 -10z"/>
        <path class="cls-2" d="M4425 2535 c-498 -66 -950 -288 -1306 -644 -177 -177 -291 -329 -404
                     -536 -158 -289 -265 -691 -265 -992 l0 -83 514 0 513 0 6 88 c44 617 532 1105
                     1149 1149 l88 6 0 513 0 514 -97 -1 c-54 -1 -143 -7 -198 -14z"/>
        <path class="cls-1" d="M4297 970 c-106 -27 -192 -98 -241 -200 -77 -163 -5 -359 164 -446
                     48 -25 66 -29 145 -29 78 0 97 4 146 28 67 32 142 109 172 175 17 37 22 66 22
                     137 0 84 -2 95 -34 153 -19 35 -54 81 -79 102 -75 66 -207 102 -295 80z"/>
    </g>
</svg>

