<?xml version="1.0" encoding="utf-8"?>
<!-- Generator: Adobe Illustrator 23.0.2, SVG Export Plug-In . SVG Version: 6.00 Build 0)  -->
<svg version="1.1" id="Ebene_1" xmlns="http://www.w3.org/2000/svg" xmlns:xlink="http://www.w3.org/1999/xlink" x="0px" y="0px"
	 viewBox="0 0 24 24" style="enable-background:new 0 0 24 24;" xml:space="preserve">
<style type="text/css">
	.st0{fill:#003063;}
	.st1{fill:#E80000;}
</style>
<path class="st0" d="M10.5,10.5"/>
<line class="st0" x1="9.5" y1="10.5" x2="9.5" y2="10.5"/>
<rect x="11" y="5" class="st1" width="2" height="0"/>
<g>
	<rect x="2" y="11" class="st1" width="0" height="2"/>
</g>
<g>
	<polygon class="st1" points="13,11 13,5 11,5 11,11 2,11 2,13 11,13 11,19 13,19 13,13 22,13 22,11 	"/>
</g>
<g>
	<polygon class="st1" points="9.5,10.5 10.5,10.5 9.5,10.5 	"/>
</g>
<g>
	<polyline class="st0" points="10.5,5 2.5,5 10.5,10.1 	"/>
	<polyline class="st0" points="9.1,10.5 2,5.9 2,10.5 	"/>
	<g>
		<polygon class="st1" points="2,5 2,5.7 2,5.7 		"/>
	</g>
	<g>
		<polygon class="st1" points="9.5,10.5 10.5,10.5 2,5 2,5.7 		"/>
	</g>
</g>
<g>
	<polyline class="st0" points="10.5,19 2.5,19 10.5,13.9 	"/>
	<polyline class="st0" points="9.1,13.5 2,18.1 2,13.5 	"/>
	<g>
		<polygon class="st1" points="2,19 2,18.3 2,18.3 		"/>
	</g>
	<g>
		<polygon class="st1" points="9.5,13.5 10.5,13.5 2,19 2,18.3 		"/>
	</g>
</g>
<g>
	<polyline class="st0" points="13.5,5 21.5,5 13.5,10.1 	"/>
	<polyline class="st0" points="14.9,10.5 22,5.9 22,10.5 	"/>
	<g>
		<polygon class="st1" points="22,5 22,5.7 22,5.7 		"/>
	</g>
	<g>
		<polygon class="st1" points="14.5,10.5 13.5,10.5 22,5 22,5.7 		"/>
	</g>
</g>
<g>
	<polyline class="st0" points="13.5,19 21.5,19 13.5,13.9 	"/>
	<polyline class="st0" points="14.9,13.5 22,18.1 22,13.5 	"/>
	<g>
		<polygon class="st1" points="22,19 22,18.3 22,18.3 		"/>
	</g>
	<g>
		<polygon class="st1" points="14.5,13.5 13.5,13.5 22,19 22,18.3 		"/>
	</g>
</g>
</svg>
