<svg xmlns="http://www.w3.org/2000/svg" viewBox="0 0 600 600"><defs><style>.cls-1{fill:#f06446;fill-rule:evenodd;}.cls-2{fill:#faf0f0;}</style></defs><g id="Ebene_2"><g id="Ebene_1-2"><path class="cls-1" d="M300,0C465.6,0,600,134.4,600,300S465.6,600,300,600,0,465.6,0,300,134.4,0,300,0Z"/><polygon class="cls-2" points="477.4 205.9 477.4 205.9 477.4 205.9 477.4 205.9"/><path class="cls-2" d="M75.4,209.2c0-6.3,1.8-9.8,7.2-9.8s7,3.2,7,8.4v49.3h14.3V209.2c0-6.3,1.8-9.8,7.2-9.8s7,3.2,7,8.4v49.3h14.3V202.5c0-12.8-8.4-17.4-15.6-17.4s-11.3,3.2-14.8,7.1c-2.6-3.5-6.7-7.1-12.8-7.1s-10.6,3.2-13.5,7.7h-.3v-6.9H61.1v71.2H75.4Z"/><polygon class="cls-2" points="238.3 205.9 238.3 205.9 238.3 205.9 238.3 205.9"/><path class="cls-2" d="M369.2,209.2c0-6.3,1.8-9.8,7.1-9.8s7,3.2,7,8.4v49.3h14.4V209.2c0-6.3,1.8-9.8,7.1-9.8s7,3.2,7,8.4v49.3h14.4V202.5c0-12.8-8.5-17.4-15.6-17.4s-11.4,3.2-14.9,7.1c-2.5-3.5-6.6-7.1-12.8-7.1s-10.5,3.2-13.5,7.7h-.2v-6.9H354.8v71.2h14.4Z"/><path class="cls-2" d="M456.6,244.5c-5.3,0-7.1-4.1-7.7-8H435.4c.6,14,10.1,21.5,21.4,21.5a21.1,21.1,0,0,0,21.3-21.5c0-8.5-3.4-16-14-20.1l-8.5-3.4c-5.3-2.1-6-4.6-6-7.3a6.8,6.8,0,0,1,7-7.1,7,7,0,0,1,7.3,7.3h13.5c-.1-11.8-8.6-20.8-20.2-20.8s-21.1,8.7-21.1,20.8c0,9.5,5.5,16.2,14.5,19.6l6.9,2.5c5.5,2.2,7.1,4.8,7.1,8.7A7.8,7.8,0,0,1,456.6,244.5Z"/><path class="cls-2" d="M268.3,258a20.7,20.7,0,0,0,15.6-6.4,21.5,21.5,0,0,0,5.8-15.1H275.4c-.3,3.1-1.6,7.1-7.1,7.1s-7-2.5-7-7v-9.7h28.4V207.3c0-12.5-8.2-22.2-21.4-22.2-8.7,0-15.3,4.1-18.6,10.2-2,3.7-2.7,8.7-2.7,14.5v23.4c0,5.8.7,10.9,2.7,14.5C253,253.9,259.6,258,268.3,258Zm0-58.6c4.4,0,7.1,2.8,7.1,8.1v8.2H261.3v-8.2h0C261.3,202.2,264,199.4,268.3,199.4Z"/><path class="cls-2" d="M187,257.1V185.9H172.7v47.9c0,6.3-1.8,9.8-7.1,9.8s-7.1-3.2-7.1-8.4V185.9H144.2v54.6c0,12.8,7.6,17.5,14.8,17.5s10.5-3.3,13.4-7.8h.3v6.9Z"/><path class="cls-2" d="M217.5,244.5c-5.3,0-7.2-4.1-7.7-8H196.3c.6,14,10.1,21.5,21.3,21.5A21.1,21.1,0,0,0,239,236.5c0-8.5-3.4-16-14-20.1l-8.5-3.4c-5.3-2.1-6-4.6-6-7.3a6.8,6.8,0,0,1,7-7.1,7,7,0,0,1,7.3,7.3h13.5c-.1-11.8-8.6-20.8-20.2-20.8S197,193.8,197,205.9c0,9.5,5.5,16.2,14.5,19.6l6.9,2.5c5.4,2.2,7.1,4.8,7.1,8.7A7.8,7.8,0,0,1,217.5,244.5Z"/><path class="cls-2" d="M328.4,250.2h.3v6.9H343V185.9H328.7v47.9c0,6.3-1.8,9.8-7.1,9.8s-7.1-3.2-7.1-8.4V185.9H300.2v54.6c0,12.8,7.6,17.5,14.8,17.5S325.5,254.7,328.4,250.2Z"/><path class="cls-2" d="M374.9,301.7c6.4-2.3,15.1-2,24,2.3l8.4-33.7c-39.3-2.1-64.9,2-80.9,9.9V393.9l48.5-5.9Z"/><path class="cls-2" d="M134.8,373.7c-22.3,0-30.4-26.3-30.4-52.1,0-18.2,3.2-36.6,12.9-46.4h-56c-5.9,14.1-8.8,30.5-8.8,46.9,0,46.3,20.7,90.5,71,90.5h0c18.2,0,30.9-3.6,40.4-10.8l-11-32.7C147.8,372,144,373.7,134.8,373.7Z"/><path class="cls-2" d="M492.6,183.2v89.6c-4.1-1.2-11-2-19.4-2-35.3,0-60.8,27.3-60.8,70.5,0,16.6,3.5,30.2,9.6,40.9l47.6-5.9c-6.2-6.5-9.2-18.6-9.2-36.5,0-27.6,7.2-42.4,24.5-42.4a31.3,31.3,0,0,1,7.7,1v75.1l48.6-5.9h0V183.2Z"/><path class="cls-2" d="M299.3,322.9c0-39.1-23.3-53.1-57-53.1-27.1,0-46.2,6.4-56.7,10.7l10,27.3c9.7-4.3,24-8.4,37.2-8.4s21.3,3.1,21.3,14.1v5.3c-40.9,3.9-76.9,13.8-76.9,49.1,0,20.9,10.8,34.3,31.3,40.5l90.8-11.1Zm-45.2,61.3c-2.6,1.3-6.2,1.8-10.5,1.8-13.3,0-21.2-6.1-21.2-20.2,0-19.1,13-23.7,31.7-25.3Z"/><path class="cls-2" d="M308,483.3l-.5-.3.4-.5v-.3c-.2-1.1-2-.9-2.8-.8l-4.7.7-.4.3-.2-.3c-3.4.6-6.7,1.1-10.2,1.5l.2.3a45.9,45.9,0,0,0-9,1v.5l-.7-.4c-.3-.1-.6-.2-.7-.6s2.5-2.3,2.4-3.2a2.4,2.4,0,0,0-.6-.8h.2c2-.2,5-6.2,6.1-8.4.7,0,2.9-4,3.3-4.7l-.4-.7h.9c.2.1.9-1.1,1-1.3,2.7-3.9,8-12.1,9.4-16.5a4.3,4.3,0,0,1,.1-.5.8.8,0,0,0-.4-.6h.6a.3.3,0,0,0,.3-.3c0-.2-.2-.2-.3-.2a2.2,2.2,0,0,1-1.1.2v-.5l1.4-.5h.3V446c0-.1-.2-.7-.4-.7s-.4.8-.5.8-.4-.4-.4-.4.1-.6.6-.7l.8.2.4-.8h-.7v-.7h.3c1.5-.2,1.1-1.4,1.2-3.3-.1.3-.4.7-.7.7h-.2c.4-.3.1-.6.4-1s1.5-.8,1.4-1.7-.1-.6-.4-.8h-.7l.7-.7.4-1.3c-.1-.3-.4-.6-.6-.6s.5-.3.4-.7-.6-.4-.8-.3-.8.4-.9.4v-.3c-.1-.7,1.7-.4,1.6-1s-.5-.6-.7-.7l.2-.8c-.4.3-.6.2-1.1-.1s.9-.4.8-1.2v-.4c-.3-.2-.5-.3-.5-.6s.3-1.3-.3-1.4l-.6.2c-.2.2-.3.1-.3-.1s.5-.4.7-.4v-.3c-.5-3.9-9.4-5.4-12.5-5.1-8.8,1-16.3,7.1-20.5,14.5-.7,1.1-2,2.5-1.8,3.9s8.8,5.2,10.2,5,1.6-3.2,2-3.9c1.6-2.5,5-4,8-4.4a10.8,10.8,0,0,1,1.8,0c.2.8,0,2.2.6,2.6-4.3,13.7-11.6,23.7-20.4,34.6v.7h-.6c-4.7,6.5-10.8,12.6-16,18.6h-.3c-.4.5-1.5,1.1-1.6,1.7l.4.8h-.8a.6.6,0,0,0,0,.6c.1,1.4,1.1,2.8,1.2,4.2s.1.4-.1.6c.3,2.5,1.3,1.1,1.6,2.7h.3c.6-.1.6-.6.8-1.1l.2.2v.6c.6-.3,2.9-.8,3.2-1.5l.6.3c.2-.1,1.3-.2,1.2-.5v-.2a35.4,35.4,0,0,0,6.2-1.6h.1l4.3-1.2.3-2.1.7.7a4.6,4.6,0,0,0-.7,1c0,.2.2.1.2.1s2-.7,3.1-.8l.7-2c.3.2.3.3.4.6s-.4,1.2.1,1.1,3.7-.7,4.1-1.4-.7-.5-.7-.9.3-.2.2-.8-.6.1-.7-.2.3-.5.4-.7h.2c.2.6,2,1,2.1,1.5s-.2.3-.3.5h-.1a3.6,3.6,0,0,0-.8-.9c-.1.1-.1.4-.1.5l.3,1h.3a14.2,14.2,0,0,0,4.1-1.4c1.5.3,1.7-.4,2.8-.5s.7.1.8.1l1.7-.2c0-.2-.8-.4,0-.8s.6.2.7.7a101.5,101.5,0,0,1,12.2-2.5c1.3-.1,2.9.5,4.1-.5s1.3-6.3,1.2-7.7Zm-4.7-52.7-.3.2A.4.4,0,0,1,303.3,430.6Zm-20.2,4.6h0Zm-.1-7.9V427h.2C283.3,427.3,283.1,427.3,283,427.3Zm1.5,2.7.2-.2v.2Zm1.1,6.5h0Zm.3-1.1h-.3l.3-.2a.2.2,0,0,1,.2.2Zm.1-5.1v-.2h.1C286.1,430.3,286.1,430.3,286,430.3Zm.8,5.6h.3Zm1.7-8.4c.2,0,.2.1.2.1S288.5,427.5,288.5,427.5Zm.7,5.9a.2.2,0,0,1,.2.2A.2.2,0,0,1,289.2,433.4Zm.3-8.6h-.2v-.2h.3A.4.4,0,0,1,289.5,424.8Zm-6,50.8v-.3h.1v.3Zm2.4-6.9c-.2,0-.3,0-.3-.2h.6C286.2,468.6,286.1,468.6,285.9,468.7Zm.4.7v-.2h.3Zm.2-1.3h0Zm.2-2.4h.1v.3Zm1,4.8h.1C287.8,470.5,287.7,470.5,287.7,470.5Zm-.1-5v-.2h0Zm2.7-4c0-.3.3-.3.4-.5h0C290.8,461.3,290.6,461.5,290.3,461.5Zm1.4-17.4c0-.2.3-.2.4-.2l-.3.3h-.1Zm.3,14.5v.2s0,.3-.2.3h-.1v-.5Zm-.1,4.5s-.1,0-.2-.2h.2c.1-.1.2.1.3.2Zm.3-8.9a.2.2,0,0,1-.2-.2v-.4c.2-.2.2-.4.3-.4v.3S292.3,454.1,292.2,454.2Zm.4.6v-.2h.4l-.2.2Zm.2,4.5h.6C293.3,459.6,293,459.6,292.8,459.3Zm0-.8v-.3h.5C293.4,458.3,293,458.5,292.8,458.5Zm.4-12.1.2.3h-.2Zm1,14.5v-.3h.1v.3Zm.8-2.9h.1v.2Zm0-8.6v0Zm1.3.2.2-.4c.2,0,.3,0,.4.2h-.6Zm.6-1.4c-.2.1-.5.1-.5-.2v-.2h.1c.2,0,.7-.1.7.2v.2Zm.2,1.9h.1Zm.8-.2c-.3,0-.3,0-.4-.3v-.2h.5v.5Zm0-1.5.7-.7c-.8-.8-2.1,0-2.5-.5s2.1-1.2,2.8-1.2.3.1.4.1-.8.7-1.1.7l-.2.2a1.7,1.7,0,0,0,1.2.2h.1c.1.7-.3,1-1,1.1Zm2.9-.3c.1.3-.5.6-.5.9h.2l-1.3.9-.4-.2a22.1,22.1,0,0,1,1.7-2.3h.3Zm-1-13h.4l-.3.2Zm.3,9,.3.3h-.5Zm-.1-.5h0Zm.3,2.8v.3h-.2v-.4Zm.1-1.1c-.1-.1-.1-.5.2-.5a.4.4,0,0,1,.2.3c0,.2-.1.2-.1.2Zm.3-2.2h-.8c0-.3.8-.6.9-.6s.7-.1.7.3S301.1,443,300.7,443.1Zm.2-5.3h.4c0,.2-.1.5-.3.5a.4.4,0,0,1-.5-.4C300.5,437.9,300.8,437.8,300.9,437.8Zm.2,3-.2-.5h.1Zm-.6-7.1c-.2.1-.2-.1-.2-.1v-.3h.1c.2-.1.2.1.2.1S300.6,433.7,300.5,433.7Zm.9,8.3h0Zm-.2-6.1v-.4h.2c.1,0,.3,0,.3.1v.2Zm.3-2.9h.6v.3h-.7Zm.7,4.3h0Zm0,1.5h0Zm.7,4c0,.2.1.5-.2.5h-.5c0-.2,0-1.5.3-1.5S302.9,442.6,302.9,442.8Zm.7-3.9h-.5Zm-.6.6v.3h-.2Zm-.1-7.1c.1-.1.3.2.3.4h0l-.6-.2v-.2Zm-.4-3.3h.2a.2.2,0,0,1-.2.2h-.1v-.3Zm.1.9h.2c0,.2-.3.4-.5.4h0Zm-.3-.1-.5.2h-.1v-.5C301.9,429.6,302.1,429.9,302.3,429.9Zm-.7,1c.1,0,.2.2.2.3s-.2,1.5-.6,1.5l-.2-.3C301.1,432.2,301.4,430.9,301.6,430.9Zm-.2-1.4-.3-.3c.1,0,.3,0,.3.2Zm-.4-1.4h-.2c0-.2.2-.7.6-.7S301.1,428.1,301,428.1Zm-.4-1.7a1.1,1.1,0,0,1,.7.3l-.3.2a.9.9,0,0,1-.7-.3h.3Zm-.2.7-.3.3h0Zm.1,1.4c.2,0,.2.3.2.5v.3l-.6.2s-.2,0-.2-.1A1.9,1.9,0,0,1,300.5,428.5Zm-1,17.2c-.2.1-.2-.1-.2-.1Zm-.1-.4-.5-.3c.2,0,.1-.2.3-.2s.2.2.2.3Zm0-4.6h0Zm-.3-7.8v.2h0Zm0,7.2c-.1,0-.1-.2-.1-.2S299.1,440.1,299.1,440.1Zm-.1-2.4v.5h-.1l-.2-.4Zm.1,4.7a.6.6,0,0,1,.2.5.9.9,0,0,1-.4.8l-.3-.4A9,9,0,0,1,299.1,442.4Zm-.9,2.4-.3-.2v-.3a1,1,0,0,1,.1-.3c.2,0,.3.3.4.4S298.4,444.7,298.2,444.8Zm.2-6.1h0Zm-.2,0v.2c0,.2-.3.2-.3.2v-.2ZM298,440c-.1.1-.2-.1-.2-.1S298,440,298,440Zm-.8,5.7s-.1,0-.1-.2v-.3h.7C297.5,445.5,297.4,445.7,297.2,445.7Zm.4-5c0,.2-.4.4-.4.2l.3-.3Zm-.5-4.8a1,1,0,0,1-.1.3v-.3Zm-.2,6.8a.4.4,0,0,1,.3-.2c.2,0,.2.3.2.5l-.4.5-.2-.2Zm-.6-.9v.2C296.2,441.8,296.3,441.8,296.3,441.8Zm-.1-.8v.2C296.1,441,296.2,441,296.2,441Zm-.1,1.8h.2c0,.2-.3.4-.4.4V443Zm-.1,2.9c.1-.1.3-.1.3.1H296Zm-1.6-3h.9l-.6.5c-.1,0-.5-.1-.5-.3S294.4,442.7,294.4,442.7Zm-.2,1.6c.2-.1.5.2.5.4a.8.8,0,0,1-.2.8l-.4-1.1Zm.2,6.9h-.5v-.2Zm-.1,2.4c.1.3.1.8.5,1.1l-.5.2c-.3,0-.3-.3-.4-.6v-.5Zm-.5-26.9h0Zm-.5,12.4c.3,0,.4.5.4.6l-.5-.4Zm0,5.3-.3.2c-.2,0-.2,0-.2-.2h0v-.2Zm-.6-15h0Zm-.3,11.6c-.1.2-.1.2-.3.2s-.1,0-.1-.2h.4Zm-.6-15.5c.1,0,0,.3,0,.3l-.2-.3Zm-.9,39.6c-.2,0,0-.2,0-.2h.3l.4-.3A1.2,1.2,0,0,1,290.9,465.1Zm.6-12.8c-.2.1-.2-.1-.2-.1S291.5,452.3,291.5,452.3Zm-.1,8-.3.2v-.4C291.3,460.1,291.3,460.3,291.4,460.3Zm-.5-1.9c-.1,0-.6.4-.6.1Zm-.3-8.5c0,.2-.1.3-.3.4v-.4Zm-.1,6.7v.3l-.2-.3Zm-.2,3.6h.3v.3h-.6v-.2Zm-.5,6.6c-.2,0-.2-.1-.2-.3a.9.9,0,0,1,.4-.5C289.9,466.1,290,466.8,289.8,466.8Zm.2-9.4a.4.4,0,0,1-.5-.2Zm-.5,6.4a.2.2,0,0,1-.2.2A.2.2,0,0,1,289.5,463.8Zm-.4-3.6v.2h-.2Zm.3,4.6-.7.5C288.7,465,289.1,464.8,289.4,464.8Zm-1.1-3.1c0,.2-.1.4-.3.4s-.2,0-.2-.2.1-.4.1-.6S288.2,461.4,288.3,461.7Zm-.7-5h.1c0,.2,0,.3-.1.4h-.2Zm-.3.7.7.6h-.9Zm-.2,1.9v.2c0,.1-.2.2-.3.2a.2.2,0,0,1-.2-.2h.5Zm-.7,0-.2-.2Zm.1,2.2h-.1l-.4-.4C286.2,461.2,286.5,461.3,286.5,461.5Zm-.8,2.9v.6h-.2c-.1.1-.1-.1-.1-.3S285.6,464.4,285.7,464.4Zm-.9,5.8-.6-1v-.3C284.5,468.8,284.8,469.9,284.8,470.2Zm-1.1,1.9a.6.6,0,0,0,.6.4h-.7v-.2A.4.4,0,0,1,283.7,472.1Zm-.2-4.6v.2h-.2v-.2Zm-.1,2.7c0,.2,0,.2-.2.2l-.2-.5h0C283.2,469.8,283.4,470.1,283.4,470.2Zm-1.1-4a.3.3,0,0,1,.3.3v.5c-.3-.3-.6,0-.7.4S282,466.2,282.3,466.2Zm-3.6,6-.4.6A1.1,1.1,0,0,1,278.7,472.2Zm0,16.6h-.5v-.4C278.5,488.5,278.7,488.6,278.7,488.8Zm-.3-1.1h0Zm0-2.5v0Zm-.2.8c0,.2-.1.2-.3.2h-.2s.2-.2.1-.4S278.2,485.9,278.2,486Zm-2.2,3.4-.5.6v.7c0,.2,0,.4.2.5s.4-.4.5-.5l.5.2c-.3,1.2-.6.9-1.5,1.3a3.3,3.3,0,0,1-.4-1.4C274.8,489.9,275.1,489.7,276,489.4Zm-1.1-9.8h-.1c.1,0,.1-.2.3-.2S275.1,479.5,274.9,479.6Zm1.6,9.3c.1,0,.3.4,0,.5S276.3,488.9,276.5,488.9Zm.1,1.2h0Zm0-6.9V483h0Zm.1-2.4h0Zm.1-.3v-.3l.5-.3v.2a.3.3,0,0,1-.3.3Zm.3,6.9.5.3v.8h-.3Zm.1,4.9H277v.1Zm0-10.5a.2.2,0,0,1,.2.2Zm.3-3-.2-.6h.5Zm-.1,10.1c.2,0,.4.3.4.5s0,.1-.2.2l-.3-.2V489Zm.4,2.4-.4-.8C277.6,490.5,277.8,491.3,277.8,491.3Zm-.1-23.8h.3l-.5,1.2V468C277.4,467.9,277.5,467.5,277.7,467.5Zm-.5,1.7h-.1v0Zm.2,2.6v.2c0,.2-.1.2-.3.2h-.2v-.3Zm-.2,1.5v-.2H277Zm-.2,4.6-.2.2v-.2Zm-.4,1c.5-.1.7.4.8.5l-.9-.3C276.4,478.9,276.6,478.9,276.6,478.9Zm-.1-1.3a.2.2,0,0,1-.2.2C276.3,477.7,276.5,477.6,276.5,477.6Zm-.1,9.1a1.6,1.6,0,0,1-.8.5c0-.3.1-.6.1-.9S276.4,486.5,276.4,486.7Zm-.2-8.2a.6.6,0,0,1-.2.6l-.2-.3.3-.5C276.2,478.3,276.2,478.5,276.2,478.5Zm-1-6.7h.1a.3.3,0,0,1-.3.3v-.3Zm-.1,1.1c.3-.2.5-.4.8-.4a.1.1,0,0,1,.1.1v.3l-1.1.2Zm.6,2.1-.5-.4h.1Zm-.6.4.2.3H275v-.4Zm-.1,1.8c0,.1-.2.2-.2.2A.2.2,0,0,1,275,477.2Zm-1.4-5.6-.2.2h.2Zm-.1,5.3c0,.1-.4.3-.6.4Zm-.2,13.8v-.2h.3Zm.1,1.7-.4-.4v-.2c.2,0,.2.1.2.3Zm-.1-12.2v-.3h.2Zm-1.3,7.1a.6.6,0,0,1,.1-.4h.7C272.8,487.1,272.3,487.3,272,487.3Zm.3,5.4c-.2,0-.5-.1-.5-.4V492l.9.3C272.4,492.5,272.5,492.7,272.3,492.7Zm.2,1.9v.5a.2.2,0,0,1-.2-.2Zm-3.3-.3v-.6h.1c.4-.1.7.1.7.2v.2Zm-2.7,3.2H266v-.9l.2-.2c.3,0,.4.9.4,1.1s1.2-1,1.3-1.1.3.1.3.2S266.8,497.4,266.5,497.5Zm.1-3.2-.7-.6v-.3l1.3-.5h.4l-1.2.8Zm2.2-2.8c0-.2.2-.2.5-.2h0l-1.4.4Zm3.7-2.6-.3.3h-.9c-.3.1-2.1-.1-2.1-.4l.7-.4A13.8,13.8,0,0,1,272.5,488.9Zm-.9-3.4h.4v.2l-.3-.2Zm-.2,7.8h-.3Zm-.2-2.1.2-.6v1.2h-.1Zm-1-1.4h-.1v0Zm-1.8,4.4v.2h-.8v-.3h.8Zm-.7,1.4-.7.4h-.4l.8-.4Zm.2.1.3-.2a.5.5,0,0,1,.5.5.4.4,0,0,0-.1.3Zm.7-1a.1.1,0,0,1,.1.1C268.6,494.9,268.6,494.7,268.6,494.7Zm.1-1.4.3-.2Zm.3-.5c0-.2.1-.7.2-.7s.2.1.2.3a.3.3,0,0,1-.3.3Zm1.1,2.5.2.9v.2c-.1,0-.4-.7-.5-.9Zm-.1-1.7v-.2h.5c.1,0,.3-.1.3.1s-.1.3-.4.4A.4.4,0,0,1,270,493.6Zm.2-2.7c-.2,0-.8.1-.8-.3s.2-.3.2-.5h.5v.5a1.4,1.4,0,0,1,.9,0C271.1,490.8,270.3,490.9,270.2,490.9Zm1.3,3h.3v.3c.1.4-.5.7-.8.7h-.2Zm1.2-7.3h-.2v-.3h.2s.1-.1.1.1Zm.1-11.7v-.1Zm-.4-.4v-.2h.1Zm-.1-1.3c0,.2,0,.3-.1.3h0Zm.2,4.9-.3.8-.4-.6h.7Zm-.3,5.6c0,.1-.2.8-.4.8a.3.3,0,0,1-.3-.3C271.5,483.9,271.8,483.7,272.2,483.7Zm-.7,3.4a5.6,5.6,0,0,1-2.6,1.1h-.3c.9-.6,1.4-1.9,2.5-2s.3.4.4.6Zm-2.4-.1h.2l-.2.2Zm2.3-9.1v.2H271Zm-.8,2.8c.1.3.1.5-.1.5l-.2-.2A.5.5,0,0,1,270.6,480.7Zm.2,2.7v.6l-.4-.4Zm-.1,2,.3.3h-.6l-.2-.2h.5Zm-.5-7.2a.3.3,0,0,1-.3.3h-.2Zm-1,3.9c-.2,0-.2-.1-.2-.1S269.2,482.1,269.2,482.1Zm.6,2.6h.2v.2c0,.1-.9.2-1.1.3h-.3A6.1,6.1,0,0,0,269.8,484.7Zm-1,4.8c0,.3-.1.8-.4.9h-1.1c-.3.5-.9.7-1.1,1.2h-.8c-.1-.8,1.4-.8,1.4-1.1l-.2-.3.5-.2c.4-.1.9.2,1.4,0s-.4-.6-.2-.8h.1C268.6,489.2,268.7,489.1,268.8,489.5Zm-3.6,2.3c.2-.1.2.6.3.7l-.4-.3Zm-.1-1,.3-.2C265.4,490.8,265.1,490.8,265.1,490.8Zm2.5-3.6v-.6c.5-.1.5.2.5.4s-.3.2-.3.2Zm.2.6.2.9h-.4c-1.1.1-.4.5-.9.6h-.3v-.2c-.1-.4.2-.9.4-1.3Zm-.1-2.3c.3-.1.5.1.7.4s-.5.3-.6.3h-.4Zm-1.3-1.8c.1,0,.3,0,.3.1v.2h-.5A.4.4,0,0,1,266.4,483.7Zm-.2,2.7c.2,0,.4.8.6.9h-.5l-.2-.8S266,486.4,266.2,486.4Zm-.5-5.8h-.2C265.7,480.5,265.7,480.6,265.7,480.6Zm-.2,8.1c.2,0,.4.6.4.8l-.5-.5C265.4,488.9,265.4,488.7,265.5,488.7Zm-.8-.2c-.2,0-.3,0-.3-.1a.3.3,0,0,1,.2-.4.9.9,0,0,1,.7.3Zm-2.2,7.5v.2l-.5-.3h.1A.4.4,0,0,1,262.5,496Zm-.3-1.2c.2,0,.4.3.4.3l-.3-.2Zm.1,2.2c-.1,0-.3,0-.3-.1v-.2Zm-.4-2.5v-.9h.1C262,493.7,262,494.5,261.9,494.5Zm-.1,3.7.6-.4a.3.3,0,0,1,.5.2h-1.1Zm.6.8a1.4,1.4,0,0,0,1.2-.6v.5a.4.4,0,0,1-.2.5l-1.2-.3Zm.8-3.1c-.2.1-.4.1-.4-.1l.9-.4C263.6,495.6,263.5,495.9,263.2,495.9Zm.6-7.3,1,.7c-.5,0-1.1.1-1.2-.4l.2-.2Zm.3,3h-.6v-.3A.9.9,0,0,1,264.1,491.6Zm-.5,2.9h.5c0,.2,0,.3-.1.3S263.6,494.5,263.6,494.5Zm.5-.4-.4-.6h.1a.6.6,0,0,1,.5.5c.1.1.1.3-.1.3Zm.1,1.3h.5S264.2,495.5,264.2,495.4Zm.4,2.3h-.5l.5-.2Zm.2-5.3v.3h-.2l-.2-.3Zm.2-5.5h-.2v-.5h.3C265.1,486.7,265.1,486.8,265,486.9Zm0-5.4a.2.2,0,0,1-.2-.2Zm-.1,1.4a.4.4,0,1,1-.7.1v-.2Zm-1.2,2.8v.4h-.2v-.3Zm-.2,4.8c.2,0,.2.2.2.3l-.4-.3ZM263,493h-.2c.4.4-.1.5-.4.5s.1-.5-.4-.7a5.7,5.7,0,0,1,1.3-1C263.4,492.1,263.4,492.9,263,493Zm-.2-5.9v.3h-.1v-.2Zm-.3-.9h-.1S262.5,486,262.5,486.2Zm.4,1.9h.2c0,.4-.5.4-.6.4h-.2v-.2Zm-2.3,3.9v-.5h.8l.8.4Zm-2.5,5.6c-.1,0-.3.1-.3-.1v-.2l.7-.2.9-.6h.7A4.2,4.2,0,0,1,258.1,497.6Zm1.4.8-1-.2V498A1,1,0,0,1,259.5,498.4Zm-1.4,0c0,.2,0,.2-.2.2v-.2Zm-.5-1.5v-.3h.1v.5Zm1.9-2.6c0,.2-.3.2-.3.2H259a.4.4,0,0,0,.3-.2Zm-.2-2.7h.2v.3h-.1Zm.2,4.1c.1,0,.3,0,.3.1s-.1.2-.1.4l-.7-.3Zm.3-4h0Zm.5,5.4c.3-.1.3.4.5.5l-.7-.4Zm-.2-1.3h0Zm.2-2.4v-.5c.2.2.5.3.5.6Zm-.1-2.5h-.1c-.1-.1-.1-.8,0-.8S260.5,490.9,260.2,490.9Zm.2,7.6.7.5h-1.4Zm.1-1.9h1C261.2,496.6,260.7,496.9,260.5,496.6Zm.5-1.2-.2-.3.2-.2Zm0-1.7h.2v.2H261Zm.4-1h.1v.2Zm-.4-2.2.3.3h-.2A1,1,0,0,1,261,490.5Zm.5-.4h.2v0Zm.6-2.1a.2.2,0,0,1-.2-.2A.2.2,0,0,1,262.1,488Zm-.4-2.2c.2,0,.3.3.4.4a1.6,1.6,0,0,1-.7,0C261.4,486,261.7,485.8,261.7,485.8Zm-.4,2a.2.2,0,0,1-.2-.2C261.3,487.6,261.3,487.6,261.3,487.8Zm-.3.5c.2-.1.6-.1.7.2l-.2.2c-.1-.3-1.1.1-1.1-.2v-.2Zm-1-.9c.3,0,.3.2.3.5h-.1l-.4-.3A.2.2,0,0,0,260,487.4Zm-.2.9h.1l-.3.2v-.2Zm-.4,1.3h0s.1.2-.1.2h-.2v-.3Zm0,1.1c0,.3-.5.2-.6,0Zm-.6,2.1h-.9v-.3a.4.4,0,0,0,.3-.2C258.5,492.2,258.7,492.7,258.8,492.8Zm.1.3-.9.6v-.5Zm-1.1-2.4v-.5h.2c.2.8,0,1.2-.7,1.2H257Zm.4,4.5c-.4-.2.2-.5.5-.5h.4c0,.5-1,1.1-1.3,1.3v-.6l-1-.7v-.2C257.3,494.5,257.8,495,258.2,495.2Zm-1.2,3.5-.3.2a.5.5,0,0,1-.5-.4.4.4,0,0,1,.2-.5C256.7,497.9,256.9,498.4,257,498.7Zm-.9-5.1a1.9,1.9,0,0,0,0-1.3l.7.3Zm-1.7.3c.1,0,.9.2,1,.4a2.8,2.8,0,0,1-1.2-.4Zm.3,3v-.2h-.1Zm.6,2.6v.2H255c0-.2.1-.2.1-.2S255.3,499.5,255.3,499.5Zm-.6-2.3-.3.2h.3Zm-.4-2.2h.3c.2-.1.2.1.2.1v.5Zm-.2,1a.2.2,0,0,1,.2.2h-.1l-.2-.2Zm.1,2.4v-.3h.2c.1-.1.1-.1.1.1a1.7,1.7,0,0,1-.6,1.2c-.2,0-.2-.3-.2-.3Zm-1.9-1.5v-.2h.1Zm.3-1.5v-.5l.5-.2c.1,0,.2.3.2.4v.2Zm.7,2h0Zm-.1,2.7h.1c.2,0,.4.1.4.2a.7.7,0,0,1-.3.6c-.3,0-.3-.3-.4-.5Zm0,1.7h.9C254.2,501.9,253.2,502.1,253.2,501.8Zm1.8.1h.1l.8,1Zm0-.9c-.3,0-.5,0-.6-.3h-.1l1.4-.2.2.2C256,500.9,255.2,501,255,501Zm.3-2.1v-.3h.5l.3.3Zm.1-2.7c0-.3,0-.5.1-.5l.5-.2h.1C256.2,495.8,255.6,496.2,255.4,496.2Zm.9,5.3h-.1v-.3l.3-.2c.2,0,.4.1.4.3Zm.5-1.4h.5Zm.4-3.3a.2.2,0,0,1,.2-.2A.2.2,0,0,1,257.2,496.8Zm.3,3.9h.5l-.6.3Zm1.9,1.2a3.2,3.2,0,0,1-1.4-.1c.7-.3.9-.1,1.6-.5v.3C259.7,501.9,259.6,501.9,259.4,501.9Zm.6-.5c0-.2.1-.2.1-.2S260,501.4,260,501.4Zm-1.2-.8c0-.2.7-.8.8-.9l1.1.2A4.9,4.9,0,0,0,258.8,500.6Zm2.6.8c-.2,0-.6,0-.7-.3v-.3c.7.3,1.2-.3,1.7-.6l.2.3C262.6,501.1,261.9,501.3,261.4,501.4Zm2.3-.6c0-.3,0-.2-.2-.5h.1c.2,0,.2.1.2.3S263.9,500.8,263.7,500.8Zm-.6-.7c.3-.2.6-.6,1.1-.6h.6C264.9,499.9,263.3,500,263.1,500.1Zm1.5-5.6a3,3,0,0,1,.4-.8v-.2h.2a.1.1,0,0,1,.1.1,1.6,1.6,0,0,1-.2,1.2l1.3-.2c.1,0,.6-.4.6.1s.1.2-.1.3-1.2.2-1.7.4.4.3.4.6a.3.3,0,0,1-.1.2h-.5l-.2-1.4Zm.7,3.4a.6.6,0,0,1,.5.6l-.8-.2C265,498.1,265.1,497.9,265.3,497.9Zm.9,2.3v-.5c-.1,0-.3.4-.3-.1v-.3l1.2.8Zm1.3-.8h.3v.2Zm-.1-.9c.2,0,.1-.2.3-.2s.5.2.5.4Zm1.1-.3c-.2,0-.3-.1-.5-.3h.1l1.4-.5-.2-.6.4-.2c.2,0,.5-.1.7.1s.9-1.1,1.6-1.2.1.2.2.3a.9.9,0,0,1-.3.5C271.2,496.8,269.6,498.1,268.5,498.2Zm3.9-.1-.3-.3.7-.9c-.2-.3-.2-1.2.1-1.3s.2.2.2.3S273.1,498,272.4,498.1Zm.7-3.8a.2.2,0,0,1,.2.2A.2.2,0,0,1,273.1,494.3Zm.1,1.1h0Zm0-1.7h-.5l.5-.4h.1c.2.3.2.4.2.4Zm.2-9.4h.2v.2h0Zm-.1-6.5.8.3.5.4c.4,0,.3-.8.7-.9h.4a2.9,2.9,0,0,1-1.9,1.5h-.2Zm1,9.1h.3Zm-.5,1v-.3h.5l-.4.4Zm.1,1.8a.2.2,0,0,1-.2-.2C273.8,489.5,273.9,489.7,273.9,489.7Zm.6.1h0Zm-.8,1.5h.6l-.7.6Zm.3,6.3a.2.2,0,0,1-.2-.2h.4C274.1,497.4,274.1,497.6,274,497.6Zm-.2-2.7h-.2c.2-.2.3-.4.6-.4h.2C274.6,494.8,274,494.9,273.8,494.9Zm1.7,1.1a.3.3,0,0,1-.3-.3c-.1-.3.5-.5.9-.6A2,2,0,0,1,275.5,496Zm.4-1.8c-.3,0-.3-.5-.3-.6v-.2c-.3-.1-.6-.1-.8-.5h-.6c.1-.2.1-.2.2-.2s1.6.8,2.1,1.1S276.1,494.2,275.9,494.2Zm.3.4h.1s.4-.2.5-.1v.2C276.6,494.7,276.2,494.8,276.2,494.6Zm.4.8.5.2v.2C276.9,495.8,276.6,495.8,276.6,495.4Zm.3,1.5c.2,0,.3-.2.5,0Zm.4-3-.3-.2V493h.5v.8Zm.6,2.1h.5S277.9,496.2,277.9,496Zm-.4-1.8c.4.2.7.4.7.7s-.1.3-.2.3Zm.7-1.5h-.4v-.2l.4-.8.3-.2c.2,0,.2.2.2.3S278.5,492.6,278.2,492.7Zm.6-6.6v-.3l.2.3Zm9,3.3h0l-.3.2v-.3Zm-1.2-3.5c-.2,0-.3,0-.4-.3S286.6,485.7,286.6,485.9Zm-.2,5.2v.2h-.3v-.3Zm-1.1-5.7v.3H285v-.3Zm-.2,3h0Zm-.7,2.1c.2.2.4.3.4.5h0l-.5-.2Zm-1.1,1.4v-.4Zm-1.5-4.6.4.2v.4h-.1c-.2.1-.4-.1-.4-.1v-.5Zm.3,2.7a.4.4,0,0,1-.1.3c-.1,0-.3-.3-.5-.2Zm-.7.7h0Zm-.1.7c.1.1-.1.4-.2.5l-.2-.2v-.3l.3-.2C281.3,491.2,281.3,491.4,281.3,491.4Zm-.1-2.4h-.3c0-.1,0-.1.1-.1Zm-.2-1.7c-.1,0-.1-.2-.1-.2S281,487.3,281,487.3Zm0,4.9.9.2v.2h-1.1v-.3Zm-.6-6.1c.1.3-.5,0-.6,0Zm.4-4.7V481h.3Zm-.3-9.9a4.7,4.7,0,0,0-.3-.9c.4-.1.8.7.8.8a.2.2,0,0,1-.2.2Zm.6-2.1a1,1,0,0,1-.1-.4.7.7,0,0,1,.4.2Zm-.2-4.6a.3.3,0,0,1,.3.3h-.1a.3.3,0,0,1-.4-.2Zm-.2,1.3h.3c-.1.4-.2.7-.4.7h-.2Zm-.3,1.9h.2l-.4.3v-.2Zm0,5.4h0Zm-.4-4.9h-.2C280,468.4,280,468.5,280,468.5Zm-.2,12.4h0Zm-.1-15.5-.2.3v-.3Zm-.5,23.8v-.8c.1,0,1.1-.1,1.1.2a1.2,1.2,0,0,1-.9.9A.3.3,0,0,1,279.2,489.2Zm.2,3s.3.1.3.3h-.5C279.2,492.4,279.4,492.4,279.4,492.2Zm.3,1.1h0Zm.1-1.1s.1-.5.3-.5.2.2.2.2-.1.4-.3.4Zm.6,2a.2.2,0,0,1-.2-.2h0l.4-.2h.1C280.7,494,280.5,494.1,280.4,494.2Zm.2-1c0-.2.3-.4.4-.4l.2.2C281.2,493.1,280.7,493.2,280.6,493.2Zm1,1.9v-.3h.5v.2Zm.2-.6c-.1,0-.3,0-.3-.3l.7-.4.2.3C282.5,494.2,282,494.4,281.8,494.5Zm.2-5.3c0-.5.5-.2.7-.1Zm.8-3.1-.2-.3v-.2l.2.3S283,486.1,282.8,486.1Zm.2,7.4h0c.1,0,.1-.2.3-.2a.3.3,0,0,1,.3.3Zm.7,1.9v-.2A.3.3,0,0,1,283.7,495.4Zm.1-9.9a.1.1,0,0,1-.1-.1h.3C284,485.5,284,485.5,283.8,485.5Zm.4,7.6h-.1v-.2h.2l.4-.5h.4c0,.3-.5.4-.6.4h-.2Zm.3,1.1v-.3l.7-.4h0C285.2,493.8,284.7,494.1,284.5,494.2Zm.7-2.6c.1-.1.1.1.1.1Zm.2-3.9c-.1-.1-.1-.1.1-.1h-.1Zm.8,6.3v-.2c0,.2.3.1.4.3h0Zm-.2-1v-.4h.2c.1-.1.3.1.5.4Zm1.4,1.2h.4C287.8,494.3,287.5,494.1,287.4,494.2Zm.3-2.1c.2-.1.2.1.2.1Zm.3-7.7v-.3h.1v.3Zm.7.6c.1,0,.2.1.2.3h0l-.5-.4Zm.4,7.4h-.4l-.3-.6h.3c.1.2.5.3.5.6S289.1,492.4,289.1,492.4Zm17.7-4.2h0Zm-.4-5.4-.3.2h.3Zm-.3,6.5H306v-.3h.3C306.3,489.2,306.3,489.3,306.1,489.3Zm0-5.7h.2l-.2.2Zm-.1.5v.2h-.1l-.2-.3C306,484,306,484.1,306,484.1Zm-.1,6.1-1-.4h.3c.3-.1.7,0,.7.2Zm-.8-1.5c.2-.1.2.1.2.1v.2h-.6Zm-1.5-2.6h.9a.2.2,0,0,1,.2.2,1.9,1.9,0,0,1-.5,1l-.2.2c-.1,0-.1,0-.2-.2a2.1,2.1,0,0,1,.6-.8h-1Zm-.5-1.6a.2.2,0,0,1-.2-.2Zm-.1.9c.2,0,.2.2.2.3h-.3v-.2Zm-1.9,2.8h.5a1.1,1.1,0,0,1-.4.9l-.2-.3Zm-.2-3.2c-.2,0-.2-.1-.2-.1S300.9,485,300.9,485Zm-.8-1h.4l-.6.4Zm.8,3.9h-1.1Zm-2.1-4.5h-1.2C297.7,483,298.5,483.2,298.8,483.4Zm-2.3,2a2.1,2.1,0,0,1-1.1.1c0-.2.9-.3,1.1-.3Zm-.8-1.1-1,.2v-.2Zm-1.1,7.9h-.3s-.1-.1.1-.2.2.2.2.2Zm-3.6-8.1h.1c.1.2-.1.5-.4.5v-.4Zm.1,1.1V485A.2.2,0,0,1,291.1,485.2Zm-.8,4.3h-.2c.2-.2,1.1-.3,1.1-.1h.1A1.7,1.7,0,0,1,290.3,489.5Zm.4,2.1v-.4l.5-.2v.3a.8.8,0,0,1-.2.5A.3.3,0,0,1,290.7,491.6Zm.4,2.1-.2-.4V493l.5.4v.3Zm1.3-4.1c0,.3-.5.2-.6.1Zm.1,3.7c-.2,0-.5-.1-.5-.3s.9-1.2,1.1-1.2h0A8.4,8.4,0,0,1,292.5,493.3Zm1.8-8.2v.2l-.5.4h-.1v-.5Zm-.6,7.6v-.2h0Zm.4.7v-.5h.8l.2.2Zm.8-1.2v0Zm.2-1c-.1-.4,1.2-.9,1.5-.9V490h.7l-2.1,1.5Zm1.2.8a.4.4,0,0,0,.3-.2.3.3,0,0,1,.3.3v.2Zm.8-1h-.3v-.3c.3,0,.5,0,.5.1A.2.2,0,0,1,297.1,491Zm.1-2.2c.1-.2.3-.2.5-.2s.3.1.3.2h-.8Zm.7,1.9c-.2.1-.2.1-.2-.1s0-.1.1-.3.2.1.2.3S297.9,490.7,297.9,490.7Zm.2,1.5V492h.1Zm.2-.5h-.1v-.4l.4-.2C298.6,491.3,298.5,491.6,298.3,491.7Zm.5-7.1h0a.4.4,0,0,1,.3-.2c0,.3,0,.4-.1.5Zm.4,7.4v-.5l.7-.2v.2C300.1,491.8,299.3,492,299.2,492Zm.4-1.9a.6.6,0,0,1-.6-.4c0-.3.8-.3,1.1-.6s-.8-.2-.8-.4.2-.4.4-.4a.9.9,0,0,1,.8.4A1.3,1.3,0,0,1,299.6,490.1Zm.9.2c.4,0,1.2-.6,1.3-.2v.2Zm1.8-3.1a1,1,0,0,1,.5.8.1.1,0,0,1-.1.1l-.9-.3Zm.2,3.2c-.1-.2.1-.2.1-.2h.5v.4C303,490.7,302.5,490.5,302.5,490.4Zm.4-1.6c-.2,0-.6,0-.6-.1a.3.3,0,0,1,.2-.4c.3,0,1.6,0,1.6.2Zm1.6.2v.4a.7.7,0,0,1-.3.6.3.3,0,0,1-.3-.3c-.1-.1.1-.1.2-.3l-.8-.2Zm-.6,1.9,1.3-.2C305.2,491,304.1,490.8,303.9,490.9Zm2.8-.5-.6,1h-.2c-.1-.5.4-.7.7-.9s-.2-.3-.2-.5l.6.3C307,490.3,306.9,490.4,306.7,490.4Zm.5-.4v-.5l.3-.5c.1,0,.1,0,.1.2S307.3,489.8,307.2,490Zm.1-5.5c0-.2.3-.2.5-.3v.2Z"/><path class="cls-2" d="M251.4,495.8h.2C251.4,495.7,251.4,495.8,251.4,495.8Z"/><path class="cls-2" d="M365.8,440.8c-1.3-10.8-12.3-19.9-23.2-18.6a5.9,5.9,0,0,0-2.3.4c-12.7,3.2-19.4,20.4-19.7,32.1a123.7,123.7,0,0,0,.9,20.2c1.1,10,8.3,18.7,19.2,17.5,3.9-.4,15-6.4,15-10.6,1.2-.4,2.4-3.4,3-4.4,4.4-8.4,8.8-20.8,7.8-30.4ZM322.6,471v-.2h.1v.3Zm17.6-40.3h.2c0,.2-.1.2-.3.2s-.2,0-.2-.1Zm-1.6,0h0Zm-1.2,3a.2.2,0,0,1-.2-.2A.2.2,0,0,1,337.4,433.7Zm-3.7,4.2v0Zm-4.8-3.3s0-.1.2-.1v.3Zm1.9,1.4c.2,0,.2,0,.2.1Zm.4,27.1v-.4h.1C331.3,462.9,331.2,462.9,331.2,463.1Zm3.8,22.5v0Zm1.1-5.8h0Zm1.5,11.7-.2-.2c0-.1.2-.1.3-.1s.2-.1.2.1Zm0-12.7c-.1-.3.4-.5.7-.5Zm.8,1.8v0Zm0,3.7h-.2v-.5C338.3,483.8,338.5,484.3,338.4,484.3Zm0-2.3h.2v.2Zm3.2-3.8c0-.2,0-.2.2-.2Zm1.9,5.6.2.2Zm.1,2.4.3-.2.2.2Zm1-2.5h-.4v-.2h.7Zm1,6.7v-.3l.4.3Zm-.1-11.4.2.2A.2.2,0,0,1,345.5,479Zm.3,5.1-.2-.2C345.8,483.9,345.8,483.9,345.8,484.1Zm.1,5.2v-.2C346.1,489.3,345.9,489.3,345.9,489.3Zm-5.6-11.7h-2.4V477a13.8,13.8,0,0,1-5.4-8.2c-1.1-9.9,1-18.8,5.6-27.6.7-1.7,1.9-4.5,4-4.7,6.8-.8,9.9,7.6,10.5,12.6C353.5,457.2,350.6,476.4,340.3,477.6Zm12.6-4.6h.2C352.9,473.1,352.9,473.1,352.9,473Zm.5-27.8V445l.2.2Zm.4-10.4c0-.1,0-.1.2-.1Zm1.7,12.2h0Zm.6-11.8v-.3a.1.1,0,0,1,.1.1C356.3,435.2,356.3,435.2,356.1,435.2Zm.1-4.9h0Zm.2,48.4h0Zm.1-47v-.2h.1Zm1.2,20.6h0Zm2.9-2.4v-.2h.2Zm1.9,5.5s0-.2.1-.2Zm1.2-13.3c-.2-.3-.2-.3-.2-.4l.6.2A.4.4,0,0,1,363.7,442.1Zm.8,1.8a.2.2,0,0,1,.2.2A.2.2,0,0,1,364.5,443.9Z"/><path class="cls-2" d="M374.5,481.9l.2-.2Z"/><path class="cls-2" d="M431.1,469.3l-.5-.2.4-.5v-.4c-.1-1.1-2-.8-2.8-.8s-3.1.6-4.7.7l-.4.4-.2-.3c-3.4.6-6.7,1.1-10.1,1.5v.3a40.7,40.7,0,0,0-9,1v.5l-.6-.4c-.4-.2-.7-.3-.7-.6s2.4-2.3,2.3-3.3a1.4,1.4,0,0,0-.6-.7h.2c2-.2,5-6.3,6.1-8.5.7.1,2.9-3.9,3.3-4.6l-.4-.8h1c.1.2.8-1,.9-1.2,2.8-3.9,8-12.1,9.4-16.6a4.3,4.3,0,0,0,.1-.5l-.4-.6h.7c.1,0,.2-.2.2-.4h-.3c-.3,0-.8.2-1.1.1v-.4c.5-.1,1-.5,1.4-.5h.3c0-.2-.2-.8-.4-.8s-.4.9-.5.9-.4-.4-.4-.4.1-.7.6-.7a1.1,1.1,0,0,1,.8.2l.4-.8h-.7v-.6h.3c1.5-.2,1.1-1.4,1.2-3.3a1.2,1.2,0,0,1-.7.7H426c.5-.4.1-.7.4-1s1.5-.8,1.4-1.7-.1-.7-.4-.8h-.7l.8-.7.3-1.3a.7.7,0,0,0-.6-.6c.3-.2.5-.4.4-.7s-.6-.4-.8-.4l-.9.5v-.4c-.1-.6,1.7-.3,1.6-.9s-.5-.6-.7-.8l.2-.8c-.4.4-.6.3-1.1,0s.9-.4.8-1.2v-.5c-.4-.1-.5-.2-.6-.5s.3-1.3-.3-1.4l-.6.2c-.1.2-.3,0-.3-.1s.6-.4.7-.4v-.3c-.5-4-9.3-5.5-12.5-5.1-8.7,1-16.3,7-20.5,14.5-.7,1-2,2.4-1.8,3.8s8.8,5.2,10.2,5.1,1.6-3.2,2-3.9c1.6-2.6,5.1-4.1,8-4.4a5.4,5.4,0,0,1,1.8,0c.2.7.1,2.2.6,2.6-4.3,13.6-11.6,23.6-20.3,34.6v.6h-.6c-4.7,6.6-10.8,12.7-16,18.6h-.3c-.4.6-1.5,1.1-1.5,1.8l.4.7h-.8c-.2.1-.1.5-.1.6s1.1,2.7,1.2,4.1.1.5-.1.7c.3,2.5,1.3,1.1,1.6,2.7h.3c.7,0,.6-.5.9-1h.1v.6c.6-.2,2.9-.8,3.2-1.4l.6.2c.2,0,1.3-.1,1.2-.4v-.2a62.5,62.5,0,0,0,6.2-1.6h.2a33.8,33.8,0,0,1,4.2-1.3l.3-2.1.7.7c-.1.2-.7.9-.7,1.1h.2c1.1-.1,2-.7,3.1-.8l.7-2c.3.1.3.3.4.6s-.4,1.1.1,1.1,3.7-.7,4.1-1.4-.7-.6-.7-.9.3-.2.2-.8-.6.1-.6-.2a.6.6,0,0,1,.4-.7h.1c.2.6,2,1,2.1,1.5a.9.9,0,0,1-.3.5h-.1c-.2-.5-.4-.8-.8-.9s-.1.3-.1.5l.3.9h.3a11.7,11.7,0,0,0,4.1-1.4c1.5.3,1.7-.3,2.8-.4h.8l1.8-.2c-.1-.1-.9-.4-.1-.8s.6.3.7.8a88.1,88.1,0,0,1,12.2-2.5c1.3-.2,2.9.4,4.1-.5s1.3-6.3,1.2-7.7Zm-4.7-52.7c0,.2-.1.2-.3.2Zm-22.2-2.7h0Zm2,7.4v-.2h.1Zm-.1-7.9v-.3h.2v.2C406.4,413.4,406.2,413.4,406.1,413.4Zm1.5,2.7.2-.2h-.2Zm1.1,6.5v0Zm.3-1.1h-.3l.3-.2h0Zm.1-5.1v-.2h.1C409.3,416.4,409.3,416.4,409.1,416.4Zm.8,5.6v-.2h.3C410.1,422,410.1,422,409.9,422Zm1.7-8.4c.2-.1.2.1.2.1Zm.7,5.9c.2,0,.2.1.2.1S412.3,419.5,412.3,419.5Zm.3-8.6h-.2v-.2l.2-.2v.5Zm-6,50.7v-.3h.1v.3Zm2.4-6.9c-.1,0-.3.1-.3-.1v-.2h.6C409.3,454.7,409.2,454.7,409,454.7Zm.4.8v-.2h.3Zm.2-1.3v0Zm.2-2.4h.1v.3Zm1,4.8h-.2v-.2h.3C411,456.6,410.8,456.6,410.8,456.6Zm-.1-5.1h.3v.2Zm2.7-3.9c0-.3.3-.4.4-.6v.2C413.9,447.4,413.7,447.5,413.4,447.6Zm1.4-17.5c0-.1.3-.1.4-.2l-.2.4h-.2Zm.4,14.6h0s0,.4-.1.4h-.2v-.5Zm-.2,4.4s-.1.1-.1-.1-.1-.2.1-.2.2.2.3.3Zm.3-8.9h-.2v-.5c.1-.2.1-.3.2-.3v.3S415.4,440.2,415.3,440.2Zm.4.6h.1a.2.2,0,0,1,.2.2l-.2.2Zm.2,4.6h.6C416.4,445.7,416.1,445.7,415.9,445.4Zm0-.8.2-.3h.4C416.5,444.4,416.1,444.6,415.9,444.6Zm.4-12.1a.4.4,0,0,1,.2.3h-.1Zm1,14.5v-.3h.1a1,1,0,0,1,.1.4Zm.8-3h.2v.2Zm0-8.5v0Zm1.3.1.2-.3h.4v.2Zm.6-1.3c-.2,0-.5.1-.5-.2v-.2h.1c.2,0,.7-.1.7.2v.2Zm.2,1.9V436h.2Zm.8-.3c-.3.1-.3.1-.4-.2v-.2h.5v.4Zm0-1.4.7-.7c-.7-.9-2.1-.1-2.4-.5s2-1.2,2.7-1.3.3.2.5.1-.9.8-1.2.8l-.2.2a1.8,1.8,0,0,0,1.2.2h.1v.2c.1.6-.3,1-1,1.1Zm3-.3c0,.3-.6.5-.6.8l.2.2-1.3.9c-.2-.1-.4-.1-.4-.3s1.4-1.7,1.7-2.2h.3Zm-1-13.1.3.2-.3.2Zm.2,9,.3.3h-.4Zm-.1-.4h0Zm.3,2.8v.3h-.2Zm.1-1.1c0-.2-.1-.5.2-.5a.4.4,0,0,1,.2.3.1.1,0,0,1-.1.1Zm.4-2.3h-.8c-.1-.4.7-.6.8-.6s.7-.1.7.2S424.2,429.1,423.9,429.1Zm.2-5.2h.3c0,.1-.1.5-.3.5a.5.5,0,0,1-.5-.4C423.6,423.9,423.9,423.9,424.1,423.9Zm-.3-8.1v0Zm.4,11.1-.2-.5.2-.2Zm-.6-7.1c-.2,0-.2-.1-.2-.1v-.3h.1a.2.2,0,0,1,.2.2C423.7,419.6,423.7,419.8,423.6,419.8Zm.9,8.3v-.2h.2Zm-.2-6.2v-.3h.5v.2Zm.3-2.8h.6v.3h-.7Zm.7,4.3h0Zm0,1.4h.1v.2h-.1Zm.7,4.1a.3.3,0,0,1-.2.5h-.5c0-.1,0-1.4.3-1.4S426,428.7,426,428.9Zm.7-3.9h-.5v-.2Zm-.6.5v.4l-.2-.2Zm-.1-7.1c.1,0,.3.3.3.5h.1l-.7-.2v-.2A.4.4,0,0,1,426,418.4Zm-.4-3.3.2.2-.2.2h-.1v-.3Zm.1,1h.2c0,.2-.3.4-.5.4v-.2A.7.7,0,0,0,425.7,416.1Zm-.3-.1-.5.2h-.1v-.5C425,415.7,425.2,416,425.4,416Zm-.7,1c.2,0,.2.1.2.3s-.2,1.4-.6,1.5l-.2-.3C424.2,418.3,424.5,417,424.7,417Zm-.2-1.4-.3-.3h.3Zm-.4-1.4h-.2a1.3,1.3,0,0,1,.6-.7C424.5,413.7,424.2,414.2,424.1,414.2Zm-.4-1.7.7.2-.3.2c-.3.1-.5-.1-.7-.2v-.2Zm-.2.7-.3.3h0Zm.1,1.4c.2,0,.2.3.2.4v.3l-.6.3a.2.2,0,0,1-.2-.2A2.2,2.2,0,0,1,423.6,414.6Zm-1,17.2c-.2,0-.2-.1-.2-.1S422.6,431.8,422.6,431.8Zm-.1-.5-.5-.2c.2,0,.2-.2.3-.2a.4.4,0,0,1,.2.3Zm0-4.6-.2.2h.2Zm-.3-7.7v.2l-.2-.2Zm0,7.1c-.1.1-.1-.1-.1-.1A.1.1,0,0,1,422.2,426.1Zm-.1-2.3v.5h-.1l-.2-.5Zm.1,4.7a.6.6,0,0,1,.2.5.9.9,0,0,1-.4.8l-.3-.4A4.1,4.1,0,0,1,422.2,428.5Zm-.8,2.3H421v-.3a.4.4,0,0,1,.1-.3c.2-.1.4.2.4.4S421.5,430.8,421.4,430.8Zm.1-6h-.2C421.4,424.6,421.5,424.8,421.5,424.8Zm-.2,0v.2c0,.1-.3.2-.3.2V425Zm-.2,1.3a.1.1,0,0,1-.1-.1C421.1,425.9,421.1,426.1,421.1,426.1Zm-.8,5.6s-.1.1-.1-.1v-.3h.7C420.6,431.5,420.5,431.7,420.3,431.7Zm.4-4.9c.1.1-.4.3-.4.2l.3-.4S420.7,426.6,420.7,426.8Zm-.5-4.9a1,1,0,0,1-.1.4V422Zm-.2,6.9.3-.2c.2,0,.2.3.2.4l-.4.5h-.2Zm-.6-.9v.2C419.3,427.9,419.4,427.9,419.4,427.9Zm-.1-.8v.2C419.2,427.1,419.3,427.1,419.3,427.1Zm-.1,1.8s.2-.1.2.1-.3.3-.4.4V429Zm-.1,2.8c.1,0,.3,0,.3.1h-.5v-.2Zm-1.6-3h.9l-.6.6a.7.7,0,0,1-.5-.3Zm-.2,1.6c.2,0,.5.3.6.5a1.1,1.1,0,0,1-.3.8l-.4-1.1Zm.2,7c-.2,0-.5.2-.5,0h0S417.5,437.1,417.5,437.3Zm-.1,2.4c.1.3.1.8.5,1l-.5.2c-.3.1-.3-.2-.4-.5v-.5Zm-.5-26.9a.1.1,0,0,1-.1-.1C416.9,412.6,416.9,412.8,416.9,412.8Zm-.5,12.4c.4,0,.4.4.4.6l-.5-.4Zm0,5.2c-.1.2-.1.2-.3.2s-.2.1-.2-.1v-.2h.2Zm-.6-14.9c-.1,0-.2-.2-.2-.2Zm-.3,11.6h-.3s-.1.1-.1-.1h.4Zm-.6-15.5c.2,0,0,.3,0,.3l-.2-.3Zm-.9,39.6c-.2,0,0-.2,0-.2v-.2h.3l.4-.4A1.1,1.1,0,0,1,414,451.2Zm.6-12.8h0Zm0,7.9-.3.2a.5.5,0,0,1-.1-.3C414.4,446.2,414.4,446.4,414.6,446.3Zm-.6-1.8c-.1,0-.6.4-.6.1Zm-.3-8.5a.3.3,0,0,1-.3.3V436Zm0,6.6-.2.4-.2-.3Zm-.3,3.7h.4v.3h-.7Zm-.5,6.6c-.1,0-.2-.2-.2-.3s.1-.4.4-.6S413.1,452.8,412.9,452.9Zm.2-9.4c-.3,0-.5-.1-.5-.3Zm-.5,6.4c0,.1-.2.2-.2.2A.2.2,0,0,1,412.6,449.9Zm-.4-3.6H412Zm.3,4.5c0,.2-.5.6-.7.6S412.2,450.9,412.5,450.8Zm-1.1-3c0,.2-.1.3-.3.4l-.2-.2c0-.1.1-.5.1-.6S411.4,447.5,411.4,447.8Zm-.7-5h.1c0,.2.1.3-.1.3h-.2Zm-.3.7.7.5h-.9Zm-.2,1.9v.2l-.3.2a.2.2,0,0,1-.2-.2h.5Zm-.7-.1a.1.1,0,0,1-.1-.1Zm.1,2.2v.2l-.4-.4C409.3,447.3,409.6,447.4,409.6,447.5Zm-.8,3v.6h-.1c-.2,0-.2-.1-.2-.3S408.7,450.5,408.8,450.5Zm-.9,5.8-.6-1.1v-.3C407.6,454.9,407.9,456,407.9,456.3Zm-1,1.8a.5.5,0,0,0,.5.5h-.7A.7.7,0,0,1,406.9,458.1Zm-.2-4.5h0Zm-.2,2.7v.2l-.3-.5v-.2C406.3,455.8,406.5,456.1,406.5,456.3Zm-1.1-4c.2,0,.3.1.4.3l-.2.4c-.3-.2-.6.1-.7.4S405.1,452.3,405.4,452.3Zm-3.6,5.9-.4.7Zm0,16.7h-.5v-.3C401.6,474.6,401.8,474.7,401.8,474.9Zm-.3-1.1v-.2C401.7,473.8,401.5,473.8,401.5,473.8Zm0-2.5h0Zm-.2.8-.3.2c-.1,0-.1,0-.2-.2a.4.4,0,0,0,.2-.3C401,472,401.3,471.9,401.3,472.1Zm-2.1,3.4-.6.5v.8a.6.6,0,0,0,.2.5c.3-.1.4-.4.6-.6l.5.3c-.4,1.1-.7.9-1.6,1.3a10.3,10.3,0,0,1-.4-1.4C397.9,475.9,398.2,475.8,399.2,475.5Zm-1.2-9.9h.2C398.2,465.6,398.2,465.6,398,465.6Zm1.6,9.4c.1-.1.3.4,0,.4S399.4,475,399.6,475Zm.1,1.2.3-.2v.2Zm0-7h0Zm.1-2.3h.1A.1.1,0,0,1,399.8,466.9Zm.1-.4v-.3l.4-.2v.2a.3.3,0,0,1-.3.3Zm.3,7,.5.2v.8h-.3Zm.1,4.9h-.2v-.2h.1Zm.1-10.5a.1.1,0,0,1,.1.1C400.4,468.1,400.4,467.9,400.4,467.9Zm.2-3-.2-.6h.5Zm-.1,10.1c.2,0,.4.3.4.4s0,.2-.1.2h-.4V475Zm.5,2.3-.4-.7C400.7,476.6,401,477.3,401,477.3Zm-.2-23.7h.3l-.5,1.1v-.6C400.5,453.9,400.6,453.6,400.8,453.6Zm-.4,1.6h0Zm.1,2.7v.2l-.3.2h-.1V458Zm-.2,1.5v-.2h-.1Zm-.2,4.6-.2.2V464Zm-.4,1c.5-.1.7.4.9.5l-1-.4A.1.1,0,0,1,399.7,465Zm-.1-1.3a.2.2,0,0,1-.2.2A.2.2,0,0,1,399.6,463.7Zm-.1,9.1-.7.5a2.7,2.7,0,0,1,0-.9C399,472.5,399.5,472.6,399.5,472.8Zm-.2-8.3c.1.3-.1.5-.2.7l-.2-.3.3-.5A.1.1,0,0,1,399.3,464.5Zm-1-6.7h.1c0,.2-.1.4-.3.4v-.3Zm-.1,1.2c.3-.2.5-.4.8-.4s.2.1.2.1v.3h-1Zm.6,2.1-.5-.4v-.2Zm-.6.4.2.3h-.3v-.3Zm-.1,1.8H398S397.9,463.3,398.1,463.3Zm-1.4-5.6-.2.2v-.2Zm-.1,5.2c0,.2-.4.4-.6.4Zm-.2,13.8h0Zm.1,1.8-.4-.5h.2c.1,0,.1.1.2.3Zm-.1-12.2V466h.2Zm-1.3,7.1a1.1,1.1,0,0,1,.1-.5h.7C395.9,473.2,395.4,473.4,395.1,473.4Zm.3,5.4a.5.5,0,0,1-.5-.5V478l.8.4C395.5,478.6,395.6,478.7,395.4,478.8Zm.2,1.8a2,2,0,0,1-.1.5h-.2Zm-3.3-.2v-.6h.2c.3,0,.6.1.6.3h0Zm-2.7,3.1v.2h-.5v-.9l.2-.2c.3-.1.4.9.4,1s1.2-.9,1.3-1.1.3.2.4.3S389.9,483.5,389.6,483.5Zm.1-3.1-.7-.6.2-.3,1.2-.5h.4l-1.1.7Zm2.2-2.8c0-.2.2-.2.5-.2h0l-1.4.3Zm3.7-2.7-.3.4h-.9c-.3,0-2.1-.1-2.1-.4s.6-.4.7-.4A26,26,0,0,1,395.6,474.9Zm-.8-3.4.3.2h-.3Zm-.3,7.8v.2h-.3Zm-.2-2,.2-.7v1.3h-.1Zm-1-1.5h0Zm-1.8,4.5v.2h-.8v-.3h.8Zm-.7,1.4-.7.4c-.2,0-.3,0-.4-.2l.8-.4Zm.2.1.3-.2c.2,0,.5.1.5.4a1,1,0,0,0-.1.4Zm.7-1h0Zm.1-1.5.3-.2C392,479.3,392,479.3,391.8,479.3Zm.3-.5c0-.1.1-.6.2-.6s.2.1.2.3a.3.3,0,0,1-.3.3Zm1.1,2.6.2.9v.2c-.2,0-.4-.8-.6-.9Zm-.1-1.7v-.2h.5c.1,0,.3,0,.3.2s-.1.3-.4.3A.5.5,0,0,1,393.1,479.7Zm.2-2.8c-.2.1-.8.1-.8-.2s.3-.3.2-.5h.5v.4h.9C394.2,476.8,393.5,476.9,393.3,476.9Zm1.3,3.1h.3v.3c.1.5-.5.7-.8.8h-.2Zm1.2-7.3h-.1v-.4h.2l.2.2Zm.1-11.7h-.1V461Zm-.3-.5h0Zm-.2-1.2c0,.1.1.3-.1.3v-.2Zm.3,4.9-.4.8-.4-.6v-.2Zm-.4,5.5a1.2,1.2,0,0,1-.3.9c-.2,0-.4-.1-.4-.3S394.9,469.8,395.3,469.7Zm-.7,3.4a4.7,4.7,0,0,1-2.6,1.1h-.3c.9-.6,1.4-1.9,2.5-2.1s.4.5.4.6Zm-2.4,0h.2v0Zm2.3-9.1h-.4Zm-.8,2.8c.1.3.1.4-.1.4h-.1C393.4,466.9,393.6,466.8,393.7,466.8Zm.2,2.6v.7l-.4-.5Zm-.1,2.1.3.3h-.3Zm-.5-7.2a.3.3,0,0,1-.3.3h-.2Zm-1,3.9c-.1,0-.2-.2-.2-.2A.2.2,0,0,1,392.3,468.2Zm.6,2.6h.2c0,.2-.9.3-1.1.3h-.3A6.1,6.1,0,0,1,392.9,470.8Zm-1,4.7a1.3,1.3,0,0,1-.4,1h-1.1c-.3.5-.9.7-1.1,1.2h-.8v-.2c-.1-.7,1.5-.8,1.4-1.1l-.2-.3.5-.2c.5,0,1,.2,1.4,0s-.4-.6-.2-.7h.1C391.7,475.2,391.8,475.2,391.9,475.5Zm-3.6,2.3c.2,0,.3.6.3.8l-.4-.3A4.3,4.3,0,0,1,388.3,477.8Zm-.1-.9.3-.2C388.5,476.8,388.2,476.9,388.2,476.9Zm2.5-3.6v-.6c.5-.1.5.2.5.4l-.3.2Zm.2.6.3.9h-.5c-1.1.1-.4.5-.9.5h-.3v-.2a1.5,1.5,0,0,1,.5-1.3Zm-.1-2.4a.8.8,0,0,1,.7.4c0,.3-.5.4-.6.4h-.3Zm-1.3-1.7c.1,0,.3-.1.3.1v.2h-.5A.4.4,0,0,1,389.5,469.8Zm-.2,2.7c.2,0,.4.7.6.9h-.5l-.2-.7S389.2,472.5,389.3,472.5Zm-.5-5.8-.2-.2A.2.2,0,0,1,388.8,466.7Zm-.2,8.1c.2,0,.4.6.4.7l-.5-.4C388.5,475,388.5,474.8,388.6,474.8Zm-.8-.2c-.2,0-.3,0-.3-.2s.1-.3.2-.3.5.1.7.2Zm-2.2,7.5v.2l-.5-.3c0-.2.1-.2.1-.2S385.6,481.9,385.6,482.1Zm-.3-1.2c.2-.1.4.2.4.2h-.4Zm.1,2.2c-.1,0-.3,0-.3-.2h0Zm-.4-2.5v-1h.1C385.1,479.8,385.2,480.6,385,480.6Zm-.1,3.6.6-.4a.3.3,0,0,1,.5.3h-1.1Zm.6.9a1.7,1.7,0,0,0,1.2-.6v.5c0,.3-.1.5-.3.5a1.7,1.7,0,0,1-1.1-.4Zm.8-3.1c-.2,0-.3.1-.4-.1l.9-.4C386.7,481.6,386.6,482,386.3,482Zm.6-7.3,1,.6c-.5.1-1.1.2-1.2-.3l.2-.2Zm.3,2.9h-.6v-.3A1.2,1.2,0,0,1,387.2,477.6Zm-.5,2.9h.5c0,.1,0,.3-.1.3S386.7,480.5,386.7,480.5Zm.5-.3-.4-.6v-.2h.1a.7.7,0,0,1,.5.4c.1.2.1.3-.1.4Zm.1,1.2h.5S387.3,481.6,387.3,481.4Zm.4,2.4-.5-.2.5-.2Zm.2-5.3v.3h-.2l-.2-.3Zm.2-5.6h-.2v-.5h.3C388.2,472.8,388.3,472.9,388.1,472.9Zm0-5.4c-.1.1-.2-.1-.2-.1ZM388,469a.5.5,0,0,1-.3.3c-.2.1-.3-.1-.4-.2v-.2Zm-1.1,2.8v.3h-.2v-.3Zm-.3,4.8c.2,0,.2.1.2.3l-.3-.3Zm-.5,2.4h-.2c.4.5-.1.5-.4.6s.1-.5-.4-.8l1.3-.9C386.5,478.2,386.6,479,386.1,479Zm-.2-5.8v.3h-.1v-.2Zm-.3-.9s-.1,0-.1-.2S385.6,472.1,385.6,472.3Zm.4,1.8h.2c0,.3-.5.4-.6.4s-.2,0-.2-.1v-.2Zm-2.2,3.9-.2-.3h.9l.8.3Zm-2.6,5.7h-.3v-.2l.7-.2a1.2,1.2,0,0,1,.9-.6h.7A6.3,6.3,0,0,1,381.2,483.7Zm1.4.8-1-.2.2-.2A.9.9,0,0,1,382.6,484.5Zm-1.4,0c0,.2,0,.2-.2.2v-.2Zm-.5-1.5v-.4h.2v.5Zm1.9-2.6c0,.1-.3.2-.3.2h-.2a.4.4,0,0,0,.3-.2Zm-.1-2.7h.1v.3h-.1Zm.1,4.1h.3c0,.2-.1.2-.1.3l-.7-.2A.6.6,0,0,1,382.6,481.8Zm.3-4c0-.2,0-.2.2-.2A.2.2,0,0,1,382.9,477.8Zm.5,5.3c.3,0,.4.5.5.6l-.7-.4A.2.2,0,0,0,383.4,483.1Zm-.2-1.2v-.2l.2.2Zm.2-2.4V479c.2.2.5.3.5.6Zm-.1-2.5h-.1c-.1-.2-.1-.8,0-.8S383.6,476.9,383.3,477Zm.2,7.5.7.6h-1.4v-.2Zm.1-1.9h1C384.3,482.7,383.8,482.9,383.6,482.6Zm.5-1.1v0Zm0-1.8h.2v.2h-.2Zm.4-1h.1v0Zm-.4-2.1.3.2h-.1Zm.6-.4h0Zm.5-2.1c-.1,0-.2-.2-.2-.2A.2.2,0,0,1,385.2,474.1Zm-.4-2.2c.2,0,.4.3.4.4h-.7Zm-.4,1.9c-.2,0-.2-.1-.2-.1S384.4,473.7,384.4,473.8Zm-.3.5c.2,0,.7,0,.7.3v.2c-.2-.3-1.1.1-1.2-.2v-.2Zm-1-.8c.3,0,.3.1.4.4h-.2l-.3-.3C383.1,473.7,383.1,473.5,383.1,473.5Zm-.2.8v.2l-.3.2v-.2Zm-.4,1.3v.2l-.2.2h-.1v-.3Zm0,1.1c0,.3-.4.2-.6.1Zm-.5,2.2h-1v-.3l.3-.2C381.6,478.3,381.8,478.7,382,478.9Zm0,.3-.9.5v-.4Zm-1.1-2.4v-.5h.2c.2.8,0,1.1-.7,1.2h-.4Zm.4,4.5c-.4-.3.2-.5.6-.5h.3v.2c0,.5-1,1.1-1.3,1.2v-.6l-1-.7h.1C380.4,480.6,380.9,481,381.3,481.3Zm-1.2,3.5-.3.2a.5.5,0,0,1-.5-.4,1.1,1.1,0,0,1,.2-.6C379.8,484,380.1,484.5,380.1,484.8Zm-.9-5.2a1.9,1.9,0,0,0,0-1.3l.7.3Zm-1.7.4c.1,0,1,.2,1,.4a8.4,8.4,0,0,1-1.2-.4Zm.3,3,.2-.2h-.2Zm.6,2.6v.2l-.4-.2c0-.1.2-.1.2-.1S378.4,485.6,378.4,485.6Zm-.5-2.3-.3.2v-.2Zm-.4-2.2c.1,0,.2-.2.2-.2a.2.2,0,0,1,.2.2v.4C377.6,481.4,377.6,481.2,377.5,481.1Zm-.3,1h0Zm.2,2.3v-.3h.2c.1,0,.1,0,.2.2s-.4,1.1-.7,1.1-.2-.3-.2-.3Zm-2-1.5h.2v.2Zm.4-1.4V481l.4-.2c.2,0,.2.3.2.4v.2Zm.7,1.9-.2.2h.2Zm-.2,2.8h.1a.4.4,0,0,1,.4.3c0,.2-.1.5-.3.5s-.3-.3-.3-.4Zm0,1.7.2-.2h.6l.2.2C377.3,487.9,376.4,488.2,376.3,487.9Zm1.8.1h.1l.8,1.1Zm0-.9c-.3,0-.4,0-.6-.3h-.1l1.5-.2h.1C379.1,487,378.3,487,378.1,487.1Zm.3-2.1v-.3h.5l.3.3Zm.1-2.7c0-.4,0-.5.1-.5l.5-.2h.1C379.3,481.9,378.7,482.2,378.5,482.3Zm.9,5.2h-.1v-.4h.3c.1-.1.3.1.3.2Zm.5-1.3h.5Zm.4-3.4c0-.1.2-.1.2-.1S380.3,482.8,380.3,482.8Zm.3,4h.5l-.6.4Zm1.9,1.2-1.4-.2a6.4,6.4,0,0,0,1.7-.5v.3C382.8,488,382.7,488,382.5,488Zm.6-.6h0Zm-1.2-.8c0-.1.7-.7.8-.9l1.2.2A11.8,11.8,0,0,0,381.9,486.6Zm2.6.8c-.1.1-.6.1-.7-.2v-.3c.7.2,1.2-.3,1.7-.7l.2.3C385.7,487.1,385,487.4,384.5,487.4Zm2.3-.5c0-.3,0-.2-.2-.5v-.2c.2,0,.2.2.2.3S387,486.8,386.8,486.9Zm-.5-.8a2.4,2.4,0,0,1,1-.6c.2,0,.3.2.6.1S386.4,486.1,386.3,486.1Zm1.4-5.5.4-.8v-.2h.2c.1-.1.1.1.1.1a1.9,1.9,0,0,1-.1,1.1h1.2c.2,0,.6-.4.6.1s.1.1-.1.3-1.2.1-1.7.4.4.2.4.5-.1.2-.1.2h-.5l-.2-1.4Zm.7,3.4a.6.6,0,0,1,.5.6l-.8-.3A.3.3,0,0,1,388.4,484Zm.9,2.3v-.5c-.1,0-.2.3-.3-.1v-.3l1.2.8Zm1.3-.8v-.2h0Zm-.1-1h.3c.2-.1.5.2.5.4Zm1.1-.2c-.2,0-.3-.2-.5-.3v-.2l1.4-.4-.2-.6.4-.3h.7c.4,0,1-1,1.6-1.1s.2.1.2.3a.9.9,0,0,1-.3.5A9.6,9.6,0,0,1,391.6,484.3Zm3.9-.2c-.1.1-.3-.2-.3-.2l.7-.9c-.2-.3-.2-1.3.2-1.3s.1.1.2.3S396.2,484.1,395.5,484.1Zm.7-3.7a.2.2,0,0,1,.2.2A.2.2,0,0,1,396.2,480.4Zm.2,1.1v0Zm-.1-1.7h-.5l.5-.3h.1a1,1,0,0,1,.2.5Zm.2-9.4h.2v.2Zm-.1-6.5.8.2c.2.2.4.5.6.5s.2-.9.7-.9h.3a2.9,2.9,0,0,1-1.9,1.5l-.2-.2Zm1,9.1v-.2h.3Zm-.5,1v-.3h.5l-.4.4Zm.1,1.7c-.2.1-.2-.1-.2-.1Zm.6.1c0,.2,0,.2-.1.2v-.2Zm-.8,1.5h.7l-.8.5Zm.3,6.3c-.2.1-.2-.1-.2-.1h.4C397.2,483.5,397.2,483.6,397.1,483.6Zm-.2-2.6h-.1v-.2a1.1,1.1,0,0,1,.5-.4l.2.2C397.7,480.9,397.1,480.9,396.9,481Zm1.7,1c-.1.1-.3-.1-.3-.2s.6-.6.9-.6S398.9,481.9,398.6,482Zm.5-1.7c-.4,0-.4-.5-.4-.6v-.2c-.4-.1-.7-.1-.9-.5h-.6c.1-.2.1-.2.3-.2s1.5.8,2,1A6.1,6.1,0,0,0,399.1,480.3Zm.2.4v-.2s.5-.2.5,0h0C399.8,480.8,399.3,480.9,399.3,480.7Zm.4.7.5.3v.2C400,481.9,399.7,481.9,399.7,481.4Zm.3,1.6c.2,0,.3-.2.5-.1Zm.5-3.1h-.4V479h.5v.8Zm.5,2.2h0Zm-.4-1.9c.4.3.7.4.8.7a.4.4,0,0,1-.3.4Zm.7-1.5H401v-.2l.4-.8.3-.2c.2,0,.2.1.2.3A.6.6,0,0,1,401.3,478.7Zm.6-6.5v-.4l.2.3Zm9,3.2v.2a.4.4,0,0,1-.3.2v-.3Zm-1.2-3.5c-.2,0-.3.1-.4-.3A.4.4,0,0,1,409.7,471.9Zm-.2,5.3h0l-.3.2v-.3Zm-1.1-5.8v.3h-.3v-.3Zm-.2,3.1h-.1v-.2h.1Zm-.7,2.1c.2.1.4.3.4.4v.2l-.5-.3Zm-1.1,1.4v-.5Zm-1.5-4.6h.4v.5h-.5l.2-.3Zm.3,2.7c.1.1-.1.3-.1.3s-.3-.3-.5-.3Zm-.7.7h0Zm-.1.6a.4.4,0,0,1-.2.5H404v-.3l.3-.2Zm-.1-2.3H404c0-.2,0-.2.2-.2Zm-.2-1.8c-.1.1-.1-.1-.1-.1A.1.1,0,0,1,404.1,473.3Zm0,5a1,1,0,0,1,.9.2h-1.1v-.3Zm-.6-6.2c.1.4-.4.1-.6.1Zm.5-4.6V467h.3Zm-.4-9.9c0-.2-.2-.7-.2-1s.7.7.7.9,0,.2-.1.2Zm.6-2.2v-.3h.4Zm-.2-4.5c.1-.1.3.1.3.2s0,.2-.1.2-.3-.1-.4-.3Zm-.2,1.2h.3c-.1.3-.2.7-.4.7h-.1Zm-.3,2h.2l-.4.2h0S403.4,454.1,403.5,454.1Zm0,5.4-.3-.2Zm-.4-4.9a.1.1,0,0,1-.1-.1C403.1,454.4,403.1,454.6,403.1,454.6Zm-.2,12.4c-.1,0-.1-.2-.1-.2S402.9,467,402.9,467Zm-.1-15.5v.3l-.2-.3Zm-.5,23.8v-.8c.1,0,1.1-.1,1.1.2s-.5.8-.8.9A.4.4,0,0,1,402.3,475.3Zm.2,3s.3.1.3.3h-.4C402.3,478.5,402.5,478.4,402.5,478.3Zm.3,1.1c.1-.1.1.1.1.1A.1.1,0,0,1,402.8,479.4Zm.2-1.2s.1-.5.2-.5.2.3.2.3-.1.3-.3.4Zm.5,2h-.2v-.2l.5-.2v.2A.3.3,0,0,1,403.5,480.2Zm.2-.9c0-.2.3-.4.4-.4h.2C404.3,479.2,403.9,479.2,403.7,479.3Zm1,1.9v-.3c.1,0,.4-.1.5.1h-.5Zm.3-.7c-.2.1-.4.1-.4-.2l.8-.4v.2C405.6,480.3,405.1,480.5,405,480.5Zm.2-5.2c-.1-.5.4-.2.6-.1Zm.7-3.1-.2-.3.2-.2.2.3A.2.2,0,0,1,405.9,472.2Zm.2,7.4h0c.2-.1.1-.2.3-.2s.3.1.3.2Zm.7,1.8h.1C407,481.4,406.8,481.4,406.8,481.4Zm.2-9.8s-.2,0-.2-.1h.3C407.1,471.6,407.1,471.6,407,471.6Zm.3,7.6h-.1V479h.1c0-.2.3-.3.4-.5h.4c0,.3-.5.4-.6.4h-.2Zm.3,1v-.3l.7-.4v.2C408.4,479.8,407.8,480.2,407.6,480.2Zm.7-2.6c.1,0,.1.2.1.2Zm.2-3.8c0-.2,0-.2.1-.2l.2.2Zm.8,6.2h0c0,.1.3.1.4.3h0Zm-.2-.9v-.5h.2l.5.4Zm1.4,1.1h.4C411,480.3,410.6,480.2,410.5,480.2Zm.4-2.1c.1,0,.1.2.1.2S410.9,478.1,410.9,478.1Zm.2-7.6v-.3h.1v.3Zm.7.5c.2,0,.2.2.2.3v.2l-.5-.4Zm.4,7.5h-.3l-.4-.6v-.2h.3c.1.1.5.3.5.6Zm17.7-4.3h-.1v-.2Zm-.4-5.3-.3.2h.3Zm-.2,6.5h-.2V475h.4C429.4,475.2,429.4,475.4,429.3,475.4Zm-.1-5.7h.2v0Zm-.1.5H429l-.2-.3C429.1,470,429.1,470.2,429.1,470.2Zm-.1,6-1-.3h.3c.4,0,.7.1.7.3Zm-.8-1.5a.2.2,0,0,1,.2.2h-.6Zm-1.5-2.5h1.1a1.4,1.4,0,0,1-.5,1.1H427c-.1-.2.4-.7.5-.9h-1Zm-.5-1.7c-.2,0-.2-.1-.2-.1Zm-.1,1c.2,0,.2.1.2.3H426v-.2Zm-1.9,2.7h.5a.9.9,0,0,1-.4.8l-.2-.3Zm-.2-3.1h-.2C424,470.9,424,471.1,424,471.1Zm-.7-1h.3l-.6.4Zm.7,3.8h0Zm-2.1-4.5-1.2.2C420.8,469.1,421.6,469.3,421.9,469.4Zm-2.3,2c0,.2-1.1.3-1.1.2s.9-.3,1.1-.3Zm-.7-1h0Zm-1.2,7.9h-.3s-.1-.2.1-.2.2.1.2.1Zm-3.6-8.1h.2a.5.5,0,0,1-.5.5v-.5Zm.1,1.1h-.1v-.3A.2.2,0,0,1,414.2,471.3Zm-.8,4.3h-.1c.1-.2,1-.3,1.1-.1h0A1.7,1.7,0,0,1,413.4,475.6Zm.4,2v-.3l.5-.2v.3c0,.2-.1.3-.2.5S413.8,477.8,413.8,477.6Zm.4,2.2-.2-.4V479l.6.4v.4Zm1.3-4.1c0,.3-.5.2-.6.1Zm.1,3.6-.5-.2c0-.3,1-1.2,1.1-1.3v.2C416.3,478.1,415.7,479.2,415.6,479.3Zm1.8-8.1v.2l-.4.3h-.2v-.4Zm-.6,7.5h.3v.2Zm.4.8V479h1Zm.8-1.2v-.2H418Zm.2-1c0-.5,1.2-.9,1.5-1V476h.6l-2.1,1.5Zm1.2.8a.4.4,0,0,0,.3-.2c.2,0,.3.1.4.3h0Zm.8-1h-.3v-.3c.3-.1.5-.1.5.1S420.2,477.1,420.2,477.1Zm.1-2.3.5-.2s.3.1.3.3h-.6Zm.7,2h-.2c0-.2,0-.2.2-.4s.1.2.2.3A.2.2,0,0,1,421,476.8Zm.2,1.4h.3v.2Zm.2-.5h-.1v-.3l.4-.2C421.7,477.4,421.6,477.7,421.4,477.7Zm.5-7v-.2l.3-.2c0,.4,0,.5-.1.5Zm.4,7.4v-.5l.7-.2h.1C423.2,477.8,422.4,478.1,422.3,478.1Zm.4-1.9a.5.5,0,0,1-.5-.5c-.1-.3.7-.2,1-.6a1,1,0,0,1-.8-.3c-.1-.2.2-.4.4-.4a.9.9,0,0,1,.8.4A1.4,1.4,0,0,1,422.7,476.2Zm1,.2c.3-.1,1.2-.7,1.2-.2v.2Zm1.7-3.1a.8.8,0,0,1,.5.7s0,.2-.1.2l-.8-.4Zm.2,3.2c-.1-.2.1-.2.1-.2h.5v.5C426.1,476.7,425.6,476.6,425.6,476.5Zm.4-1.7c-.1,0-.6.1-.6-.1s.1-.3.2-.3h1.7Zm1.6.3v.3a.7.7,0,0,1-.3.7.3.3,0,0,1-.3-.3q0-.2.3-.3l-.9-.3Zm-.6,1.8c.2,0,1.3-.3,1.3-.1S427.2,476.9,427,476.9Zm2.8-.4-.6,1a.2.2,0,0,1-.2-.2c-.1-.4.4-.6.7-.8s-.2-.3-.2-.5l.6.3C430.2,476.4,430,476.4,429.8,476.5Zm.5-.4v-.5l.3-.5h.2A1.9,1.9,0,0,1,430.3,476.1Zm.1-5.6c0-.1.3-.2.5-.2v.2Z"/><path class="cls-2" d="M491,452.6h.1l-.3-2.9c-.1-.9-.5-4.3-1.1-4.7-.6-2-4.1-9.2-6.1-9h-.2c.2-1.1-2.3-2-2.9-2s-.7-.9-1.2-.9l-1.2.3v-.6l-2.8-.8c-.1.4-.5,1.2-.8,1.2s-.3.1-.5-.1l1-.9c-.9-1-4.7-.6-5.9-.4s-2.6.6-3.9.6v-.2c-.1-1.1,2.3-2.1,2.1-3.4a.5.5,0,0,0-.3-.3h.8c.7-.8,2.9-3.3,3.1-4.1s-.4-1.4-.1-1.4l.3.2c.2,0,.4.2.7.1h.1v-.2c.9-.3,2.4-2.2,2.8-3.2a44.6,44.6,0,0,0,3.3-4.3l-.7-.6.7-.3c-.1.2.2.4.4.5a.3.3,0,0,0,.3-.3,1.2,1.2,0,0,0-.2-.8v-.6l.5.7c1.8-1.1,2.3-3.9,3.8-4.9h-.4c-.3.1-.2.5-.6.6a.5.5,0,0,1-.3-.3.5.5,0,0,1,.1-.3c.2.1.8,0,.8-.4v-.4l.9.3.6-.9c-.1-1.1,1.6-1.4,1.5-2.7s-3.5-6.7-5-6.6c-6.9.8-32.3,4.3-34.7,6.3a1.4,1.4,0,0,0-.2.7c.1.5.6.9.6,1.4v.3h-.3l-.3-.6.3,3.5.6.3-.4.7c.4,1.7.1,3.5.3,5.2l.3.8a1.8,1.8,0,0,1,.8.7l5-1.2s-.7-.4-.4-.4.6,0,.8.2l2.7-.5h-.1c1.5,0,2.6-.8,3.9-.8v-.2l1.1-.2a.5.5,0,0,1,.7.4c.1.4-.7,1.1-.9,1.5l.3.4-.7.3c-1.2,1.2-1.6,3.3-3.1,3.8l-4.3,5.2c-.1.4.1.8-.2,1.2s-.3-.3-.3-.3-.5.2-.5.2-1.3,1.3-1.8,1.8c-2.2,2.3-5.5,5.4-6.9,8.1a1.3,1.3,0,0,0-.1.6c.1.3.4.4.6.6-.3,1.7.4,3.6.6,5.3v.5c.1.4-.2,1.1.2,1.7s0,2.4,1.7,2.2h.6l.4-.4h0a60.1,60.1,0,0,1,6.4-1.4h.1c1-.1,3,0,3.4-1.2l.5.6a4.2,4.2,0,0,0,2.5-.6l5.6.5a2,2,0,0,1,.9-.7c.1-.1.3-.1.3.1s.4,1,.9,1h.3v-.4l.6.2c0,.2-.3.4-.3.4h.6l.5-.2a.4.4,0,0,0,.5.5c1.4,1.3,3.4,2,4.8,3.5s.6,2.4,1.5,3.3l.2,1.4c0-.2.3-.1.3.1a1.8,1.8,0,0,1-.2,1.1c.4,1.6-.7,3.1-.6,4.7a2.3,2.3,0,0,0,.6,1.2l-.2.2h-.5c-1.8,5.1-6.6,7.5-11.9,8.1-2.2.3-4.4-.4-6.3-.2l-.7.2c-1.7-.7-5.7-2.2-7.2-2s-8.3,8.2-8.2,8.7,1.6,1.9,2.5,2.4,3.9,4.1,5.3,4.1l.4.6a18.3,18.3,0,0,0,10.3,1.4c.1-.3.5-1,.9-1s.1.1.2.3-.5.3-.5.5a17.7,17.7,0,0,0,2.2-.1c.5-.1,3.5-.4,3.2-1.2s.7.1.7.6h.3l1.4-.4c-.1-.1-.3-.6.1-.6h0v.4h.8a17.2,17.2,0,0,0,6.9-2.7c2.4-.3,11-7.1,10.7-9.1v-.4c.5,0,1.2-1.7,1.3-2.2h-.4l.7-.3c.4-.8,1.2-2,1.1-2.8l-.2-.3c1.1-.1,2.2-10,2.1-11A6.8,6.8,0,0,0,491,452.6Zm-13.6-37.1h-.1v0ZM443,437.7v-.3l.2.3v.2Zm1.3,2.7.4-.3v-.5h.1l.6.9Zm.5-2.2h.2a.6.6,0,0,1,.5.6v.2Zm1.4.4h.3l-.3.2Zm.1,5.3h.1c.2,0,.2,0,.2.2Zm6.6-12.7v0Zm-.1,1.3v.5l-.2-.2Zm-.2,1.3h-.2v-.3C452.6,433.6,452.6,433.8,452.6,433.8Zm-.3,3.3-.3.2-.2-.3h0Zm-.2,2.4c-.1.1-.1-.1-.1-.1A.1.1,0,0,1,452.1,439.5Zm-.2-1.7h.2C452.1,437.8,451.9,437.8,451.9,437.8Zm-.1,4.3c-.2,0-.2-.1-.2-.1Zm-1.5-12c.1,0,.5.1.5.3H450C450,430.1,450.1,430.1,450.3,430.1Zm.4,1.1h-.2V431Zm.1.6c0,.3-1,.1-1.1.1Zm-1.1,9.1v.2l-.2.2-.3-.2Zm-.3,1.3c-.1.1-.2-.1-.2-.1Zm-1.2-10.8v.2l-.3.2v-.3Zm-.8,7.1v-.3a.2.2,0,0,0-.1-.3h.5A1,1,0,0,1,447.4,438.5Zm.5-4.2h-.2l.5-.2h.1C448.4,434.3,448,434.3,447.9,434.3Zm1,4.8-.3-.3h-.1c0-.2.2-.3.3-.4s.2.3.2.3v.5Zm.3,3.9c0-.3.3-.3.4-.3s.2.1.2.3v.4A.6.6,0,0,1,449.2,443Zm.8-4c.2,0,.2.1.2.1H450Zm.3,1.5v.2a.2.2,0,0,1-.2.2l-.2-.2Zm-.2,1s0-.5.1-.5.4.6.1.7Zm.2,3.3a.5.5,0,0,1,.3-.3h.5C451,444.8,450.4,445.1,450.3,444.8Zm.7-16.5v-.2h0Zm.5,15.8v-.2l.5-.2C452,443.8,451.8,444,451.5,444.1Zm.7,1.8v-.6h.2C452.5,445.2,452.3,445.7,452.2,445.9Zm.4-1.2v-.1h-.1Zm-.2-1.4c-.2,0-.3.1-.5-.1v-.3H453C453,443.3,452.6,443.3,452.4,443.3Zm.6,2.2h.3v.2Zm14.2-12.9v.3h-.1v-.3Zm-.9,5.8c.1,0,.1.2.1.2h-.1c-.2.1-.2-.1-.2-.1Zm-.5-.1c.1,0-.1.7-.1.7s0-.2,0-.2v-.5Zm.3,2.8a.4.4,0,0,1-.3.2h-.2V441Zm-.7-12.9v0Zm.1-1.1-.4-.6h-.5c.1,0,.1-.2.3-.2s.6.3,1,.4Zm-.9,2.3h-.2v-.2h.3Zm.1,2.4-.2-.2A.2.2,0,0,1,464.7,431.8Zm-1.8,3.4v.4l-1.3-.5Zm-1.4-2.3-.5-.5.6-.6c.1,0,.6.1.6.3S461.5,432.6,461.5,432.9Zm2.1-20.8c.8-.2,1.3-.9,2.1-1h.3c-.2.7-1.6,1.1-2.2,1.2h-.3Zm-.1-1.9h.4v.3h-.3Zm.9-1.2c-.1-.1.1-.2.1-.2S464.4,409,464.4,409Zm1.8,6.3H466c.2-.2.7-1,.9-1A.9.9,0,0,1,466.2,415.3Zm.8,8.3-.2.2v-.2Zm-.9-6.2c0,.1-.6.2-.6.2v-.5h0A.6.6,0,0,1,466.1,417.4Zm-.9-3.7v-.2h.2c.2,0,.2.1.2.3s-.1.6-.1.9ZM464,425.2v.5h-.6v-.4Zm-.5-2.6.2-.2v.2Zm-.1-3.8-.2-.2h.2Zm.2,8.5.2.2c0,.3-.2.4-.5.5l-.2-.3C463.1,427.5,463.4,427.3,463.6,427.3Zm0,1.9a.3.3,0,0,1-.3-.3h.1Zm-.5-6.4-.2-.2h.3Zm-.4,7.9h.3v.2h-.1Zm.5,4.1v.2h0Zm-.6-4.5.2-.2v.2Zm.3-6.4a.2.2,0,0,1-.2.2h-.3v-.3Zm-.8-5.4v-.2h.2v.2Zm.6,9.6a1.1,1.1,0,0,1-.2.5c-.2,0-.3-.5-.3-.5l.2-.2C462.5,427.9,462.7,427.9,462.7,428.1Zm.4,9.1v-.5c.2,0,.2.1.2.1s.1.7-.1.8l-.5-.2Zm-.2-4.3.4-1.3.2.5C463.5,432.4,463.2,432.7,462.9,432.9Zm.5-2.6c0-.1.2-.1.2-.1l.6-.3-.4.7C463.6,430.6,463.5,430.5,463.4,430.3Zm.6-3,.2-.2h.2l-.2.2Zm.1-9.2h.6C464.6,418.2,464.2,418.4,464.1,418.1Zm2,8.1h0Zm1.2-1.4a4.2,4.2,0,0,1-1.7-.2c0-.4.1-1,.4-1s1.2.9,1.4,1.2Zm-.2-14c0-.2.1-.2.1-.2Zm.3,10.1v-.2h0Zm.4-.7v-.5h.1C468,419.9,467.8,420,467.8,420.2Zm.2-5.3c-.1.1-.1-.1-.1-.1h.6s0,.2-.1.2h-.3Zm.3-.6a3.1,3.1,0,0,1,1-.5c.1.2-.8.6-1,.6Zm-.1,2h0l.3.3h-.1A.2.2,0,0,1,468.2,416.3Zm.3,1-.2-.2h.3Zm.3-1.7.4-.2v.2c0,.1-.1.2-.3.2h-.1Zm0,3.7.2-.2v.2Zm.5,2.5c0-.2.1-.2.1-.2h-.1Zm.1-.5s-.3,0-.3-.1V421h.7Zm.4,3.9V425h.2v.2Zm.1-4.9V420h.1S470.1,420.3,469.9,420.3Zm1.2-10.6h0Zm.1,7.7c.1-.1.1-.3.3-.3s.4.7.4.9Zm2.5-2.9V414l.3-.2c0,.1,0,.4-.1.5h-.3Zm.2,3.3v-.4l.3.3v.2Zm.3-12.6h-.1l.4-.2C474.4,405,474.4,405.2,474.2,405.2Zm.3,8.2a.8.8,0,0,1,.7-.7l-.3,1,.5.2v.4C475.1,414.1,474.6,413.9,474.5,413.4Zm2.7-3.9v-.4l.5.3Zm.8-2h-.2v-.2h.3C478.1,407.5,478.1,407.5,478,407.5Zm.3,3.9v-.5l.3-.2c.2,0,.2,0,.2.2S478.4,411.2,478.3,411.4Zm.4,1.4h-.1l.2-.4.2.3Zm1-2.2.3-.3h.2v.5Zm1.3-.1v-.2h.1S481.2,410.4,481,410.5Zm-1.1-1a6.5,6.5,0,0,0-1.4,0l1.4-.3c.1-.2.3-.2.5-.3a.9.9,0,0,1,.8.4Zm-.4-5.4h.1A.1.1,0,0,1,479.5,404.1Zm.6,2.2h-.4s-.1,0-.2-.3A.9.9,0,0,1,480.1,406.3Zm.1,1.2h.3v.2h-.1Zm3.5-3.8.2.6h-.1l-.2-.2Zm-1.3,3.6v-.2h.9C483.3,407.2,482.4,407.8,482.4,407.3Zm.2-2.4h0Zm-.8-1c.4-.1.5.2.6.5h-.2l-.6-.3C481.5,404.1,481.7,403.9,481.8,403.9Zm-.5,4.8h-.2s.3-.1.3,0S481.3,408.7,481.3,408.7Zm-.1-8.7s.1.1-.1.1h.1Zm.2,4.2c0,.3-.1.5-.1.7s0-.3-.2-.8h0A.2.2,0,0,1,481.4,404.2Zm-.6-3.5c.1.1-.1.1-.1.1Zm0,6.6c.2,0,.2.1.3.3h-.4C480.6,407.3,480.8,407.3,480.8,407.3Zm-.4-6.4c.1-.1.2.1.2.1v.2l-.3-.2Zm-.2-1.6v0Zm-.1.3-.6.4-.2-.3Zm-1.2,3.8c-.3-.3-1.1.1-1.1-.3v-.4C478.1,402.9,478.9,402.9,478.9,403.4Zm-1.1,5.5h-.3v-.2Zm-.5-5.9h0Zm-.4,10.5h-.6v-.4h.7Zm-.9-2.8h.1c.2,0,.5-.1.5.3l-.7.5Zm.1,1.4c.2,0,.3.1.5.3h-.8C475.8,412.2,476,412.1,476.1,412.1Zm-.3-9.9h-.2v-.6Zm-.2,12.4.4.5h-.5C475.5,414.9,475.4,414.6,475.6,414.6Zm-.2-3h-.1v-.3ZM475,405c-.2,0-.4-.5-.4-.5l.2-.2.3.6Zm0-5.1c.1.1-.1.5-.2.5h-.5l-.3-.3Zm-.8,3.3v.3h-.3Zm-.2,8.5h-.1l-.4-.2v-.4Zm-.7.4c.3,0,.3.5.3.6s.1.5-.1.5l-.5-.9Zm-.5,5.8a2,2,0,0,1,.6.9h-.2c-.3.1-.5-.7-.5-.8Zm-1.1-5.4a1.9,1.9,0,0,1,.4-.9h.2l.3.3C472.6,412.2,472.2,412.4,471.7,412.5Zm.6-11.5a.4.4,0,0,1,.2.3.3.3,0,0,1-.3.3h-.1C472,401.3,472.2,401.2,472.3,401Zm-.4,1.6h.3l-.3.2h-.2v-.2Zm-.1.3v.2c0,.3-.5.4-.6.4v-.3Zm-.6,2h0Zm-.9,15.8.4-.4.2.2C470.9,420.6,470.4,420.7,470.3,420.7Zm.3-9.9c.1,0,.4.5,0,.5h-.1C470.5,411.2,470.4,410.9,470.6,410.8Zm-.1,3.4h-.2V414Zm-1.1,1.4c0-.2.3-.2.3-.2Zm0-6.8c-.2,0-.2-.5-.2-.5v-.2c.2,0,.2.2.2.3S469.6,408.7,469.4,408.8Zm-.2-7.8c.1,0,.3,0,.3.1l-.5.3v-.2Zm-1.3,9.8c-.2,0-.3.1-.4-.2h.8C468.3,410.6,468,410.8,467.9,410.8Zm-.8-9.7h1l-1.1.5Zm-.4,7.8c.2,0,.4.1.4.3s-.2.2-.2.2l-.3-.3C466.6,408.9,466.7,408.9,466.7,408.9Zm-.1.5h-.1v-.2Zm-.1,4.1h0Zm-.3-6.8h.1Zm-.3-4.8h.2v.2c0,.2-.1.2-.3.2h-.2Zm-.6,5.3v-.3l.2.2Zm0-5.6s-.2.4-.3.4v-.8Zm-.4,5.6c.1.2-.1.2-.1.2Zm-.8-.4c-.3.1-.5-.1-.7-.4h.2l1.1.2Zm-.3-5.6.4.7h-.6a.2.2,0,0,1-.2-.2Zm-.8,15.7h-.4c-.1-.3.5-.7.7-.9Zm-.5-1.5.3-.2v.3Zm.3-7.2c.1.2-.1.2-.1.2h.1Zm-.1,5.8a.4.4,0,0,1-.3-.2.1.1,0,0,1,.1-.1C462.7,413.6,462.7,413.8,462.7,414Zm-.1-9.1v.2h-.1Zm-.5,6.7h.3v.3Zm.1-4.7v.3h-.2Zm.1,16.1c-.1.2-.1.4-.3.4h-.1v-.3Zm-.6-16.2v-.2C461.7,406.6,461.7,406.8,461.7,406.8Zm.1,1.9a.5.5,0,0,1-.3.5c-.3,0-.8-.7-.9-1a.6.6,0,0,1,.5-.2C461.4,407.9,461.7,408.4,461.8,408.7Zm-.3,1.4h0v-.2C461.6,410,461.6,410.1,461.5,410.1Zm-.8-8.1-.2-.2A.2.2,0,0,1,460.7,402Zm-.5,2.1v.6h-.1C460.1,404.6,460,404.3,460.2,404.1Zm-.8,4.7-.4.3v-.3l.2-.2C459.4,408.6,459.4,408.6,459.4,408.8Zm-.3-2.8-.3-.3.2-.2Zm-.3-1.3.2.2h-.3Zm0,8.1c.1,0,.3.4.5.6l-.7-.6Zm-1.8-8.2h0Zm-2.5,6.6a.8.8,0,0,1-.6.7c-.1.1-.1.1-.2-.1v-.3l.4-.5Zm0-4.2h.3c0,.2-.3.4-.3.4Zm-.5,5.9a.1.1,0,0,1-.1.1h.1Zm0-4.5h0Zm-.2.7c-.2,0-.2-.1-.2-.1S453.8,409.1,453.8,409.1Zm-2.1-3.1h.7v.2l-1,.2Zm.2,4.7h0l.5.2c0,.2,0,.2-.2.2Zm.2.8h0Zm-.2-1.9h.2v.3h-.2Zm-1,1.9-.7.2.4-.8Zm-.3-2.5v.3h-.2V409Zm-.3-3.8-.5-.6h-.1C450.1,404.5,450.3,405.1,450.3,405.2Zm-.8.3-.3-.2V405l.3.3Zm.2,7.1c-.2-.3-.4-.5-.4-.8v-.3h.1Zm-1.1-5.8c-.2.1-.2-.1-.2-.1S448.6,406.8,448.6,406.8Zm-.4,1v.2c.1.1.1.1.1.3l-.2-.3Zm-.3,1.8c.4,0,.7.4.9.5l-1.1.2V410C447.8,409.8,447.8,409.6,447.9,409.6Zm.7,1.5h0Zm-1.1-5.3v-.3l.2.3Zm.3-.6-.4-.3h0Zm-.2,8.2v.2H447v-.3l.3-.2Zm-.4-2.4c0,.1-.2.1-.2.3v-.5C447.1,410.8,447.2,411,447.2,411Zm-.9-4.9v-.3h.1v.3Zm.2,2.9.2-.2v.3h-.3Zm0,3.3h.2l.3-.2h0a.2.2,0,0,1-.2.2C446.7,412.4,446.5,412.5,446.5,412.3Zm1.2,3.5-1-.7v-.3l1.2.7Zm.2-2.2-.2-.5v-.5h.1l1.1.9C448.5,413.3,448.2,413.2,447.9,413.6Zm1,3.3c-.1.1-.3.1-.3-.1s.3-.2.3-.2h.2C449.1,416.8,449.1,416.9,448.9,416.9Zm-.1-1.5h-.2a3.6,3.6,0,0,1,.2-1c.2,0,.6-.1.7.3A2.3,2.3,0,0,1,448.8,415.4Zm.7.5c.1,0,.1.2.1.2Zm-.6-2.1.6-.3.3.2Zm1.4,1.4h-.1c-.2-.1-.3-.6.1-.6S450.6,415.2,450.3,415.2Zm.1-2.4a1.4,1.4,0,0,1,.2-.6l.4.5a4.3,4.3,0,0,1-.1.5A.4.4,0,0,1,450.4,412.8Zm.9,1.6.4.6h-.1a.9.9,0,0,1-.7-.3,1.1,1.1,0,0,1,.8-1c.2-.1.2.1.2.1v.2Zm.4-1.3,1.3-1.2v-.5h.2l.3.4a1.8,1.8,0,0,0-.8,1.4l.2.3-.3-.3Zm1.5,2.1a1.4,1.4,0,0,1-1.1-.7l.5-.2.9.5S453.3,415.2,453.2,415.2Zm.2-.8v-.5h.2c.3,0,.4.4.6.7Zm.8,0a.2.2,0,0,1,.2.2A.2.2,0,0,1,454.2,414.4Zm.3,1.3v-.5h.2C454.8,415.6,454.7,415.7,454.5,415.7Zm.3-1.6c-.2,0-.3,0-.3-.2v-.3h.3A1,1,0,0,1,454.8,414.1Zm0-1.3h-.2v-.3l.3-.2C454.9,412.5,455,412.8,454.8,412.8Zm0-7.3v-.2a.5.5,0,0,1,.3.3Zm-.3-2.3c0-.2.3-.2.6-.3S454.5,403.3,454.5,403.2Zm1.2,7.7c-.2.1-.5-.4-.5-.5s.2-.4.4-.4l.2.6A.5.5,0,0,1,455.7,410.9Zm.2-5.4c.3,0,.3,0,.3.2Zm.8,1.5v.4h-.2v-.3Zm-.1,3.7v-.2C456.6,410.5,456.6,410.7,456.6,410.7Zm.1,3.8-.2-.3.7-.3v.2C457.2,414.3,456.9,414.5,456.7,414.5Zm.1-2.6h.1c.2.1.5.1.5.5v.5Zm.9-.4h0c.1-.2.2-.4.5-.4h.2Zm.9,1.2a.2.2,0,0,1-.2-.2A.2.2,0,0,1,458.6,412.7Zm0,1.9c-.1,0-.1,0-.1-.2v-.3h.4C458.8,414.4,458.8,414.6,458.6,414.6Zm.6-.4c.4-.1.4-.1.4.1Zm.5-2h.1v.1Zm.3-5.4h-.3l.2-.8.5-.2C460.1,406.2,459.8,406.5,460,406.8Zm.4-3.4a.2.2,0,0,1,.2.2A.2.2,0,0,1,460.4,403.4Zm.5,9h-.1v-.5h.1S461.1,412.4,460.9,412.4Zm.2-1.6h-.2a.6.6,0,0,0-.4-.7c0-.2.2-.2.3-.2s.4.4.4.6S461.2,410.8,461.1,410.8Zm.1.8v-.2h.2C461.3,411.4,461.3,411.6,461.2,411.6Zm0,4.6c.3-.1.4.4.4.6h0l-.5-.5v-.2Zm-.7,2c.3-.1.3.2.5.5h-.8v-.3A.3.3,0,0,1,460.5,418.2Zm-.3,11.1h-.4l.3-.2Zm-.1,3.8h-.6C459.5,433,460.1,432.8,460.1,433.1Zm0-15.4H460a.4.4,0,0,1-.1-.3Zm0,3.7h0Zm-1.5,4.1h0l.3-.2.2.3Zm.5-1.8c0,.2-.1.7-.3.7s-.1,0-.2-.2l.3-.6Zm-.3-2.3v-.3A.4.4,0,0,1,458.8,421.4Zm-.1-2.2h0s0,.2-.1.2-.2,0-.2-.1Zm0,9.8h0c0,.2-.1.2-.4.2Zm-.3,3c0,.2-.1.2-.3.2H458l.4-.3Zm-.8-10.2v.2l-.2-.2Zm.4,1.1s.2,0,.2.1v.2l-.8.2v-.3Zm-.5,2.1a.2.2,0,0,1-.2.2A.2.2,0,0,1,457.5,425Zm0,1.4H457C457.1,426.5,457.4,426.3,457.5,426.4Zm-.4,3.9h-.2l.2-.2Zm-.1-.5c.1.2-.1.2-.1.2a.3.3,0,0,1-.3-.3c-.1-.2-.1-.2.1-.2A.3.3,0,0,1,457,429.8Zm-.2-7.7a.3.3,0,0,1-.3.3A.3.3,0,0,1,456.8,422.1Zm-.4,10-.3.2v-.2Zm-.7-5.5h-.3l.6-.4.2.3A.6.6,0,0,1,455.7,426.6Zm.4-2.5h-.3v-.2C455.9,423.9,456.1,423.9,456.1,424.1Zm-1,.1.3.7h-.2l-.2-.3v-.4Zm-1.3,3.6v.3h-.1Zm-.4,2.3h.5l-.3.2Zm.4,15.6h-.2v-.2c.1,0,.3,0,.3.1Zm-.1-1.9.2-.2v.2Zm0-11.1h-.1l.2-.4.2.2A.3.3,0,0,1,453.7,432.7Zm0-4.3h0a.7.7,0,0,1,.4.7Zm.4,13.5v-.2h0Zm.4-5v-.3h.1C454.7,436.7,454.7,436.7,454.5,436.9Zm.3-8.7h.2v.2Zm-.3-2.4.8-.4h.2c0,.4-.1.7-.4.7S454.6,426,454.5,425.8Zm.8,1.5h0Zm-.1,3.2v.3s-.2,0-.2-.1Zm0,3v.3h-.2Zm.3,10.4c-.2,0-.4-.1-.4-.3h0v-.2l.6.3C455.6,443.7,455.6,443.9,455.5,443.9Zm.4-10.3h-.2V433l.3-.2Zm.4,10.2h.4l.7.4Zm.7-8.6h.5C457.5,435.3,457,435.3,457,435.2Zm1.1,9.2v-.3l.2.3Zm-.1-10.1h-.8v-.3h1.1v.2C458.3,434.3,458.2,434.3,458,434.3Zm.5,3.9c.1,0,.4-.1.5.3h0l-.7-.4Zm-.1,1.1h0Zm.5,5.3c.1,0,.2.2.2.2A.2.2,0,0,1,458.9,444.6Zm.3-19.8.4-.2-.4.4Zm.4,1.4c.2,0,.4.3.4.4s-.6.1-.6-.2Zm0,17.6-.2-.2h.1s.2-.1.2.1Zm.4-6.2-.2-.3h.6Zm.1,1.2h0Zm-.2.8v0Zm.4,4.6h-.2c0-.2,0-.3.1-.3a.3.3,0,0,1,.4.2Zm.1-5.6v0Zm-.2-4.4h-.3c0-.2,0-.2.1-.2l.7-.2h0A.5.5,0,0,1,460.2,434.2Zm.6-3.4h.3v.3h-.4Zm.4,4.6c-.2,0-.2-.5-.3-.6a.2.2,0,0,1,.2-.2c.1,0,.2.4.2.4S461.3,435.3,461.2,435.4Zm.2,8.7v-.2l.4.3Zm.7-1.6c0-.1.2-.3.1-.5h.2Zm.2-5.7c-.2,0-.3.1-.5-.1l.4-.2h.2C462.4,436.8,462.3,436.8,462.3,436.8Zm.2,1.9a.4.4,0,0,1,.4-.2c.5-.1.7,1.2.7,1.5v.9l-.5-.4C463.1,439.9,463.3,438.8,462.5,438.7Zm1.1,4.3h.2C463.6,443.2,463.6,443,463.6,443Zm.2,1.6.4-.4h.2A1.3,1.3,0,0,1,463.8,444.6Zm.3-5.9v-.2c.1,0,.3.5.3.6Zm.1-5.9.3-.2h-.3Zm.5,1.4h.4l-.4.2Zm.1,3c.2-.1.2.1.2.1Zm.1,4.5h.3v.2h-.3Zm.4,1.9c-.2,0-.4-.1-.4-.3s.5-.2.4-.6.6-.4.9-.5.4.6.6.8S465.5,443.3,465.3,443.6Zm1.7-5.9h.1v.2h-.3C466.8,437.9,467,437.7,467,437.7Zm.2,3h.1v0Zm1.8-2-.4-.2c0-.2,0-.3.2-.4S469,438.6,469,438.7Zm-.3-5.3c.2,0,.2.1.2.1s-.1.4-.3.4v-.5Zm-.4,3.7c.2,0,.2.3.2.3v.3l-.4-.4Zm-.5,2.7c0-.1.3-.3.3-.5s.3.1.4.3S468.2,439.8,467.8,439.8Zm.4,3.3s0-.1.2-.2.3.3.3.5A.5.5,0,0,1,468.2,443.1Zm1.2,1.8c-.2,0-.6-.6-.7-.7l.7-.4v.6A.9.9,0,0,1,469.4,444.9Zm3.8-9.2v.3l-.2-.2Zm-.7,2h0Zm0,3a.2.2,0,0,1,.2.2h-.5Zm-.1,1.2h-.2v-.2Zm0,3h-.3v-.2Zm-2.6.9h0Zm.1-13h-.2l-.2-.4h.5v.2C470,432.6,470.1,432.8,469.9,432.8Zm.2,11.8h0l.2-.2C470.3,444.5,470.3,444.5,470.1,444.6Zm.4-7.8h-.2v-.2C470.5,436.7,470.5,436.8,470.5,436.8Zm0,3v-.3h.2v.3Zm.4-6.8h0Zm.5,1.7-.2-.5h.1c.2-.1.2.1.2.1A1.1,1.1,0,0,1,471.4,434.7Zm0,.4c.1.2-.1.2-.1.2A.3.3,0,0,1,471.4,435.1Zm-.5,11c.2,0,.3,0,.4.2h0Zm.3-.8V445l.4.4Zm.2-5.1v-.3h.2v.3Zm-.1-6.6c-.1-.2-.1-.3.1-.3s.5.1.5.2Zm.8,13.2-.2-.3.2-.2.3.5Zm.5-1.5h.1v.2Zm.7-2.3h-.2c-.1.1-.1.1-.2-.1s.4-1-.4-1.1l.6-.3.4.9Zm-30.9,33.9h0Zm1.8,1.6c0-.2,0-.2.1-.2h.2v.2Zm.6-1.5v-.2l.2.2Zm.3-4.2h.2v.2Zm.9-.6s-.2.1-.2-.1v-.2h.2c.1,0,.1,0,.1.2S446.2,472.2,446,472.2Zm.6,2.4c.1-.1.1-.2.3-.2v.3C446.8,474.7,446.7,474.5,446.6,474.6Zm1,1.6v-.3l.2-.2A1.3,1.3,0,0,1,447.6,476.2Zm5.8-2.7h-.3v-.2C453.3,473.3,453.4,473.3,453.4,473.5Zm-1.9-3.1a.2.2,0,0,1-.2-.2A.2.2,0,0,1,451.5,470.4Zm-.1.6c0,.3.2.6-.1.8V471Zm-1.6-2.7v.3h-.4Zm0,2.4h0Zm0,4-.2.3h-.1v-.2Zm-.5,4.3h0Zm.2-1.1v-.3l.2-.4v.3c0,.2,0,.3-.1.4Zm.2.6v-.2l.2.2Zm.7-2.6-.4-.2h.4Zm.3-2.8h.5l-.3.2Zm.4,6.6h0Zm.2-2.4a.2.2,0,0,1,.2.2C451.4,477.5,451.3,477.3,451.3,477.3Zm.9-1.8v-.2h.2v.2Zm.2-4h-.2l.3-.2h.2C452.6,471.3,452.6,471.5,452.4,471.5Zm.6,4.9c.1,0,.1,0,.1.1A.1.1,0,0,1,453,476.4Zm.3-1.6h-.2v-.3h.1c.2,0,.3,0,.4.2Zm.2,1h.1Zm.6,4.6h.4c0,.2-.3.2-.4.2Zm.1,3.8a.3.3,0,0,1,.2-.4h.4C454.6,483.9,454.5,484.1,454.2,484.2Zm2.4-9.5c0-.2.1-.2.1-.2S456.6,474.7,456.6,474.7Zm.7,5.1v-.3h.1l.2.4Zm.6,3.9h-.1v-.3h.5A.3.3,0,0,1,457.9,483.7Zm-.1-.9c.2,0,.2.3.2.3Zm.4-5a.2.2,0,0,1-.3-.1l.4-.4v.2C458.3,477.7,458.4,477.8,458.2,477.8Zm.1-2.3h-1v-.2h1.1Zm.2,8a.2.2,0,0,1,.2-.2A.2.2,0,0,1,458.5,483.5Zm.1-10.8h-.2v-.5C458.5,472.1,458.9,472.7,458.6,472.7Zm.1,11.1h.2C458.7,484,458.7,483.8,458.7,483.8Zm2.4-7.2c.1-.1,0,.6,0,.6s-.2-.5-.2-.5Zm-.9-5-.2-.3c0-.2,0-.2.1-.2l.2.3Zm.8,10.2c.2,0,.4.6.3.6s-.9-.7-1-1h.2v-.2h.4Zm.7,1.3h.1v.1Zm.2-6v-.5l.3.2Zm2.7-1.4h-.1v-.2Zm-1.4,7.3-.2-.2h.4v.2Zm-.2-10.3c.2,0,.1-.2.3-.2s.2.1.2.3v.2Zm1.2,9.5c.4,0,.4,0,.4.1v.2Zm.3-5.7c.2,0,.2.1.2.1Zm.4-1.3V475h.1Zm1.2,4.1v.2h0Zm0-8.7v-.2h.1v.2Zm.8,3.9v-.2c.2.2.4.3.4.5Zm1.1-.8v-.3h.3Zm22.1-25v.2h0Zm-.7-2.1V446C489.5,446.1,489.7,446.5,489.4,446.6Zm-.6,4.6-.5-.4c-.1-.1-.1-.1.1-.1S488.8,451.1,488.8,451.2Zm-.7,1.1.2.3H488v-.3Zm-.3-5.2v-.5h.1a.4.4,0,0,1,.2.4v.4Zm.4-5a.1.1,0,0,1-.1-.1Zm-.2,1.8a.3.3,0,0,1,.3.3v.4c-.2.1-1,0-1-.2A1,1,0,0,1,488,443.9Zm-.9,6.6h.2c.1-.1.3.1.3.2s-.9.5-1,.5S487,450.5,487.1,450.5Zm-.1-5.4h.6l-.4.3Zm0-3.6h.1c0,.2,0,.2-.2.3v-.3Zm-.3,8.4c.1.3-.2.3-.4.4h-.2Zm-1-3.2v.3h-.2v-.3Zm-.1,1.4c-.2,0-.2-.1-.2-.1Zm-.2,4h-.2l.4-1.1.3-.2v.5c.1.4.6.4,1,.3s1-.1,1,.1h-.2c-.1.1-.9.1-.9.5l.6.5-2.4.3v-.2l.3-.3h.8C485.9,452.4,485.7,452.1,485.4,452.1Zm2.2,3.9c0,.1,0,.1-.2.2v-.4Zm-.7-1.5h-.1V454l.2-.2Zm-1.9,4.3c-.1,0-.1-.1-.1-.3h.7A.8.8,0,0,1,485,458.8Zm-.2,5.2h-.1A.1.1,0,0,1,484.8,464Zm-.2-9.4h.1c.2-.1.3-.1.4.1l-.2.2Zm.2,8h0c.2-.1.2-.1.2.1Zm.3-4.6v-.3h.7A1.2,1.2,0,0,1,485.1,458Zm.6-3.4v-.2c.2,0,.4.3.5.4ZM485,443h-.2v-.2Zm-.2,8.1-.4-.6.3-.2Zm-.1-1.1s0,.1-.2.1a.1.1,0,0,0-.1-.1v-.2h.4Zm-.4-8.7h-.1Zm-.6,3.9v.3c-.2-.2-.3-.1-.4-.3Zm-.3,3.6h0Zm.1,1.6-.3.2h.3Zm-.3-11c0,.1-.2.1-.2.1S483.2,439.4,483.2,439.4Zm-.1,12a.2.2,0,0,1,.2.2.3.3,0,0,1-.3.3h-.2v-.4Zm0,5.6h.5a1.1,1.1,0,0,1,.2-1.1h.4l-.4.9.3,2c-.3,0-1.2-.8-1.4-1.1Zm.3,11.2c.2,0,.2.6.1.6s-.2-.5-.2-.6Zm-.8-9.6H482c.2,0,.1-.2.3-.2S482.5,458.5,482.6,458.6Zm-.7-1.3a.2.2,0,0,1-.2-.2c0-.1.1-.2.1-.3h.5C482.3,457,482,457.2,481.9,457.3Zm.1,6.4c-.2.1-.2-.1-.2-.1Zm-5.7-14.8h.8l-.6.7-.5-.6v-.5Zm.2-8.5.2.5-.5-.3Zm-.1-1.9c.2,0,.2.2.3.2s-.1.1-.3.2Zm.4,3.2.2-.4.2.2c.1.3-.1.4-.2.8Zm-.1,11.7v-.8A1.1,1.1,0,0,1,476.7,453.4Zm.2,4.7a.2.2,0,0,1-.2.2l-.3-.3h0A.4.4,0,0,1,476.9,458.1Zm-.1,4.5h.1c.1.3-.1.7-.2,1l-.4-.7C476.3,462.8,476.6,462.6,476.8,462.6Zm0-1h.2v.2Zm.2-1.4v-.3c0-.2,0-.3.1-.4v.7Zm.1-3.2c.3,0,.2.3.2.5v.3l-.2-.3Zm-.5-1.8.7-.6,1,.5-.9.3C477.2,455.4,476.6,455.5,476.6,455.2Zm1-6.2h.3v.2c-.2,0-.2-.1-.2-.1Zm.1,9h0Zm.5-5.4v-.5h.2c.1,0,.1.2.1.2s.1.4-.1.4S478.2,452.6,478.2,452.6Zm.7-1.7v.3c0,.2-.2.2-.3.2s-.5-.1-.6-.4Zm-.6-5.4c0-.2.1-.2.1-.2h.2l-.3.3Zm2,13c.1,0,.6,0,.6.3v.2A.5.5,0,0,1,480.3,458.5Zm.1,3a.4.4,0,0,1-.3.2s-.3.1-.3-.1.4-.4.6-.4Zm.1-7.6.2-.2c.1,0,.1.2.2.3a.2.2,0,0,1-.2.2h-.1Zm-.3-1.4v-.3l.7.7Zm.2,4.6-.2.7-.5-.3Zm-1-6.4.3-.2v.2h0C479.6,450.9,479.4,450.9,479.4,450.7Zm.4,2.4h-.3v-.2C479.6,452.9,479.6,453.1,479.8,453.1Zm-.1,2.2h-.1c-.3,0-1-.2-1.1-.7h0C478.9,454.6,479.7,454.8,479.7,455.3Zm-1-2v.2c.1.1.1.3-.1.3S478.6,453.4,478.7,453.3Zm-.3-1.2v-.3l.6.2Zm.5,8.3h-.3l-.2-.2Zm.1,4.1v.2h-.2v-.3C478.9,464.4,479,464.4,479,464.5Zm0-6.3h.1Zm-.3-.6c0-.1-.2-.4-.2-.6s.3-.3.3-.5v-.2h.5Zm1.1,8.3.4.3-.8-.3Zm.2-.8v-.2h.8v.5a1.3,1.3,0,0,1,.2.8h0C480.8,466.2,480.1,465.4,480,465.1Zm1.1-.5a.1.1,0,0,1,.1-.1h-.1Zm-.1-8v-.8h.6C481.6,456,481.1,456.4,481,456.6Zm.6,2.3h.1a.1.1,0,0,1-.1.1h0Zm.4-6.1-.2-.6h.3Zm-.1-6.3-.3.3h0Zm-.1,7.3-.2.2v-.4Zm-.2-11.6v.2c0,.1-.1.8-.4.8H481c0-.3.4-.7.4-.8Zm-.3-7.7v.3l-.5.2ZM481,436c-.1,0-.1-.2-.1-.2S481,436,481,436Zm-.4,7h.1c.1.2-.1.5-.4.5h0C480.3,443.3,480.2,443,480.6,443Zm-.2,2.9s.2-.1.2.1h-.2Zm-.2-4.9H480c-.1.1-.3-.2-.3-.2v-.2Zm-.8,7.2c.2,0,.3,0,.3.1s-.5.9-.8.9a.4.4,0,0,1-.4-.4v-.2A1.8,1.8,0,0,1,479.4,448.2Zm-.7-9.1h0c0,.2-.3.2-.3.2h-.3c0-.2.3-.4.4-.4Zm-.5-1.6a1.2,1.2,0,0,1,.2.5h-.1l-.3-.4Zm-.1,17v.2l-.4-.3v-.2C477.9,454.2,478,454.4,478.1,454.5Zm-.1-10.6h0Zm-.3-5.5h-.2C477.6,438.2,477.7,438.4,477.7,438.4Zm-.2,1.1-.6.4h-.3c.1-.2.2-.4.4-.4Zm-.5-5.8v.2c0,.1-.3.2-.5.2v-.2Zm-.3,1.8h-.3v-.2Zm-.2,7.6c-.4.1-.7-.1-.8,0S476.1,443,476.5,443.1Zm-.6-6.6c0,.2-.2.2-.3.2Zm-.1,3.2h.1c0,.3-.3.4-.6.4Zm-.4,2.8c0,.1.1.4-.1.4h0Zm0,.9c0,.2-.1.3-.3.4h-.2l.3-.8-.5-.3v-.2C475.1,442.5,475.3,443.1,475.4,443.4Zm-.8-5.6v-.3a.5.5,0,0,1,.1.3Zm.2-3.8h-.3C474.6,433.8,474.8,433.8,474.8,434Zm-.5,5.1h0Zm0,6h.6C474.8,445.2,474.5,445.3,474.3,445.1Zm.6,5h0s-.1-.2.1-.2a.4.4,0,0,1,.2.3Zm.1-1.6h.6C475.5,448.6,475.2,448.5,475,448.5Zm.7,2.3h.3c.2,0,.2,0,.2.2s.1.4-.1.5S475.8,451,475.7,450.8Zm.5,1.2v-.1S476.4,452,476.2,452Zm0,11.6c-.1.2-.1.2-.3.2Zm-2.3,1.8c-.1.1-.2-.1-.2-.1Zm-.5,1.1s.1-.1.2.1h0l-.5.3s-.1,0-.1-.2S473.2,466.5,473.4,466.5Zm-4.3,9.9.2-.3.2.8Zm.7-6.8c-.1-.4.1-.7.2-.7h0A.4.4,0,0,1,469.8,469.6Zm1.5,3.7c-.2-.4-.6.1-.9.3l.3-.5h.6Zm.2-5.7h-.1s.2-.1.2.1Zm.3,14.2h0Zm.3-9.7c-.1.1-.1-.1-.1-.1v-.5c.2,0,.5.1.5.3A.3.3,0,0,1,472.1,472.1Zm.5-4v-.6h.1l.2.3A.3.3,0,0,1,472.6,468.1Zm.7,4.9v.3l-.3-.3Zm0,.6h-.4c0-.1.2-.1.3-.2l.2.2Zm.7-5.9a.3.3,0,0,1-.3.3h-.1Zm0,11.2h-.3l.3-.4.2.5Zm-.1-2.5v-.2c-.1-.1-.1-.1.1-.2s.2,0,.2.2S474,476.4,473.9,476.4Zm.6-5.6-.2-.2A.2.2,0,0,1,474.5,470.8Zm.4-1c-.2,0-.2-.2-.2-.3v-.2h.2C475,469.6,475,469.8,474.9,469.8Zm.4-1.7h-.1v-.2h.5C475.5,468,475.5,468.1,475.3,468.1Zm0-2.8h0Zm.5,5.6h0Zm.4,3.2h.1v.2h-.1Zm.3,4.4h-.2v-.2c.2-.2.3-.3.5-.3s.1-.1.1.1S476.7,478.4,476.5,478.5Zm0-1.2s-.1.1-.1-.1v-.3h.2c.1,0,.4-.1.6.1S476.7,477.3,476.5,477.3Zm.2-6.5c0-.1.2-.1.2-.1S476.7,470.8,476.7,470.8Zm-.2-2.3v-.2c-.1-.4.5-.7.8-.9v.2C477.4,468.1,476.8,468.3,476.5,468.5Zm.7-4.4.2-.3.2.3Zm.9-.6h.2v.3h-.1Zm.1,14.5v-.2h-.1Zm.2-10.7c-.2-.1-.2-.1-.2-.3a3.5,3.5,0,0,1,.1-.6h.2v.4C478.5,467,478.6,467.3,478.4,467.3Zm.4,7.7a.1.1,0,0,1,.1-.1C479,475,478.8,475,478.8,475Zm-.2-3.1h.5C479.1,472.1,478.8,471.9,478.6,471.9Zm.1-2.1c0-.1.6-.4.6-.2S478.7,470,478.7,469.8Zm1.2,8v-.2h0Zm-.2-5.9a.2.2,0,0,0,.2-.2c.3,0,.3.3.5.5Zm.1-2.4h0Zm.5.3c0,.2,0,.5-.1.6v-.6Zm-.8-1.2c-.3,0-.5.1-.8-.1s1,.3,1.6-.9l.9-.5.4.2-.9.4C480.4,468,480,468.6,479.5,468.6Zm1.7,0-.3-.3a3.5,3.5,0,0,1,1-.8h.3c.1.5-.5,1-.8,1.1Zm.9,1.8-.4-.3h.2c.1,0,.2.3.3.3Zm-.2-6.8.3-.7v.6Zm.5,6.6c.1-.2.4-.2.6-.4S482.5,470.2,482.4,470.2Zm.8-9.3v.2h-.1Zm-.1,13a.4.4,0,0,1,.3-.2A.4.4,0,0,1,483.1,473.9Zm.6-4.2h-.1c.1,0,.3-.1.3.1Zm0-1.7h-.2v-.2c0-.1.3-.2.3-.2l.5.2Zm.4-2.4v-.2l.2-.2h.3v.2C484.5,465.5,484.2,465.5,484.1,465.6Zm.6,5.3c-.2,0-.2,0-.2-.2v-.3h.8A1.4,1.4,0,0,1,484.7,470.9Zm1.6-8.3h-.5l-.2-.3C485.8,462.4,486.3,462.5,486.3,462.6Zm-.7,9.8V472S485.8,472.3,485.6,472.4Zm0-4.3.3-.2c.2,0,.4.3.4.4Zm.7-8.3a.4.4,0,0,1-.4-.3.2.2,0,0,1,.2-.2v-.2l.4.5Zm.2-2c0-.3.1-.6.3-.6S486.7,457.8,486.5,457.8Zm.3,5h0Zm0,1.5v-.2s.1,0,.1.2Zm.4.6v0Zm.3-1v-.2h.2C487.7,463.9,487.7,463.9,487.5,463.9Zm-.1-3.9v-.5h.2l.2.4Zm.3,5.8h0Zm0-10.3c-.1-.3.4-.7.2-1h.5Zm.9-1.2v-.2c.2,0,.2-.2.3-.2h.2v.3Zm2,4.3c-.2.1-.3.1-.4-.1h.5v.2A.1.1,0,0,1,490.6,458.6Zm-.6-6.5c-.3,0-1.4,0-1.5-.2v-.2h1.4l.6-.2h.2C490.7,451.8,490.1,452,490,452.1Z"/><polygon class="cls-2" points="483.8 457.4 483.6 457.2 483.6 457.4 483.8 457.4"/></g></g></svg>
