<?xml version="1.0" encoding="UTF-8"?>
<svg id="Ebene_2" data-name="Ebene 2" xmlns="http://www.w3.org/2000/svg" viewBox="0 0 187.41 186.84">
  <defs>
    <style>
      .cls-1 {
        fill: #1e345e;
        stroke: #1e345e;
        stroke-miterlimit: 10;
        stroke-width: 7px;
      }
    </style>
  </defs>
  <g id="Ebene_1-2" data-name="Ebene 1">
    <path class="cls-1" d="m160.07,99.6c-.08,26.05.49,54.72.41,80.77,0,1.47-1.19,2.65-2.67,2.65-13.52.03-27.22.23-40.74.26-1.47,0-2.66-1.17-2.68-2.64-.19-14.76-.23-30.34-.4-45.25-.04-3.69-3.02-6.66-6.71-6.7-8.57-.09-17.15-.17-25.72-.26-3.74-.04-6.81,2.96-6.85,6.7-.15,15.05-.44,30.57-.57,45.52-.01,1.46-1.19,2.64-2.65,2.65-13.84.15-27.49-.34-41.32-.2-1.51.02-2.75-1.21-2.73-2.73.31-28.03,1.6-52.24,1.91-80.27.02-1.49-1.19-2.72-2.69-2.72-4.61,0-14.1,0-20.48,0-2.38,0-3.58-2.87-1.91-4.56C31.15,65.58,65.23,31.08,91.66,4.3c1.03-1.04,2.69-1.06,3.75-.05,8.11,7.81,18.92,18.65,27.03,26.45,1.68,1.62,4.48.47,4.55-1.86.05-1.7.1-3.4.15-5.1.04-1.45,1.22-2.6,2.67-2.61,9.98-.09,18.01-.05,27.97-.14,1.48-.01,2.71,1.19,2.72,2.67.2,17.37.03,28.9.25,46.64,0,.73.31,1.43.84,1.93,5.61,5.29,14.66,13.67,21.48,20.16,1.75,1.67.57,4.62-1.85,4.63-6.51.02-12.92.05-18.43-.07-1.5-.03-2.73,1.16-2.73,2.66Z"/>
  </g>
</svg>